<?xml version="1.0" encoding="UTF-8" standalone="no"?>
<!DOCTYPE svg PUBLIC "-//W3C//DTD SVG 1.1//EN"
 "http://www.w3.org/Graphics/SVG/1.1/DTD/svg11.dtd">
<!-- Generated by graphviz version 2.30.1 (20141125.1714)
 -->
<!-- Title: ptest_daveReduction Pages: 1 -->
<svg width="977pt" height="1188pt"
 viewBox="0.00 0.00 977.00 1188.00" xmlns="http://www.w3.org/2000/svg" xmlns:xlink="http://www.w3.org/1999/xlink">
<g id="graph0" class="graph" transform="scale(1 1) rotate(0) translate(4 1184)">
<title>ptest_daveReduction</title>
<polygon fill="white" stroke="white" points="-4,5 -4,-1184 974,-1184 974,5 -4,5"/>
<!-- mainEdt -->
<g id="node1" class="node"><title>mainEdt</title>
<ellipse fill="none" stroke="black" cx="380" cy="-1162" rx="40.4202" ry="18"/>
<text text-anchor="middle" x="380" y="-1158.3" font-family="Times,serif" font-size="14.00">mainEdt</text>
</g>
<!-- finalEDT -->
<g id="node2" class="node"><title>finalEDT</title>
<ellipse fill="none" stroke="black" cx="206" cy="-18" rx="44.2946" ry="18"/>
<text text-anchor="middle" x="206" y="-14.3" font-family="Times,serif" font-size="14.00">finalEDT</text>
</g>
<!-- mainEdt&#45;&gt;finalEDT -->
<g id="edge1" class="edge"><title>mainEdt&#45;&gt;finalEDT</title>
<path fill="none" stroke="black" d="M339.693,-1160.35C241.896,-1157.67 0,-1144.08 0,-1075 0,-1075 0,-1075 0,-105 0,-39.2385 90.5038,-22.8708 151.535,-19.3094"/>
<polygon fill="black" stroke="black" points="151.989,-22.7917 161.808,-18.8128 151.65,-15.7998 151.989,-22.7917"/>
<text text-anchor="middle" x="29" y="-586.3" font-family="Times,serif" font-size="14.00">SharedRef</text>
</g>
<!-- ffjSetup -->
<g id="node3" class="node"><title>ffjSetup</title>
<ellipse fill="none" stroke="black" cx="441" cy="-1074" rx="38.4949" ry="18"/>
<text text-anchor="middle" x="441" y="-1070.3" font-family="Times,serif" font-size="14.00">ffjSetup</text>
</g>
<!-- mainEdt&#45;&gt;ffjSetup -->
<g id="edge2" class="edge"><title>mainEdt&#45;&gt;ffjSetup</title>
<path fill="none" stroke="black" d="M376.309,-1143.79C374.998,-1133.32 375.079,-1120.08 381,-1110 385.845,-1101.75 393.447,-1095.26 401.632,-1090.22"/>
<polygon fill="black" stroke="black" points="403.535,-1093.17 410.641,-1085.31 400.185,-1087.02 403.535,-1093.17"/>
<text text-anchor="middle" x="400" y="-1114.3" font-family="Times,serif" font-size="14.00">Shared</text>
</g>
<!-- mainEdt&#45;&gt;ffjSetup -->
<g id="edge3" class="edge"><title>mainEdt&#45;&gt;ffjSetup</title>
<path fill="none" stroke="black" d="M399.88,-1146.08C406.577,-1140.34 413.689,-1133.39 419,-1126 424.282,-1118.65 428.648,-1109.84 432.06,-1101.62"/>
<polygon fill="black" stroke="black" points="435.425,-1102.62 435.745,-1092.03 428.891,-1100.11 435.425,-1102.62"/>
<text text-anchor="middle" x="447.5" y="-1114.3" font-family="Times,serif" font-size="14.00">gDone</text>
</g>
<!-- ffjFOR -->
<g id="node4" class="node"><title>ffjFOR</title>
<ellipse fill="none" stroke="black" cx="441" cy="-986" rx="36.096" ry="18"/>
<text text-anchor="middle" x="441" y="-982.3" font-family="Times,serif" font-size="14.00">ffjFOR</text>
</g>
<!-- ffjSetup&#45;&gt;ffjFOR -->
<g id="edge4" class="edge"><title>ffjSetup&#45;&gt;ffjFOR</title>
<path fill="none" stroke="black" d="M472.773,-1063.53C485.08,-1058.13 497.896,-1049.98 505,-1038 514.298,-1022.32 498.194,-1009.54 479.818,-1000.7"/>
<polygon fill="black" stroke="black" points="480.984,-997.39 470.421,-996.562 478.162,-1003.8 480.984,-997.39"/>
<text text-anchor="middle" x="534" y="-1026.3" font-family="Times,serif" font-size="14.00">ffjLedger</text>
</g>
<!-- ffjSetup&#45;&gt;ffjFOR -->
<g id="edge5" class="edge"><title>ffjSetup&#45;&gt;ffjFOR</title>
<path fill="none" stroke="black" d="M411.373,-1062.25C391.687,-1053.27 371.127,-1039.19 381,-1022 385.993,-1013.31 394.069,-1006.57 402.7,-1001.43"/>
<polygon fill="black" stroke="black" points="404.573,-1004.4 411.79,-996.647 401.311,-998.21 404.573,-1004.4"/>
<text text-anchor="middle" x="400" y="-1026.3" font-family="Times,serif" font-size="14.00">Shared</text>
</g>
<!-- ffjSetup&#45;&gt;ffjFOR -->
<g id="edge6" class="edge"><title>ffjSetup&#45;&gt;ffjFOR</title>
<path fill="none" stroke="black" d="M439.242,-1055.93C438.735,-1050.23 438.25,-1043.85 438,-1038 437.696,-1030.9 437.696,-1029.1 438,-1022 438.109,-1019.44 438.264,-1016.78 438.445,-1014.12"/>
<polygon fill="black" stroke="black" points="441.94,-1014.32 439.242,-1004.07 434.962,-1013.76 441.94,-1014.32"/>
<text text-anchor="middle" x="469.5" y="-1026.3" font-family="Times,serif" font-size="14.00">gDoneROF</text>
</g>
<!-- ffjROF -->
<g id="node16" class="node"><title>ffjROF</title>
<ellipse fill="none" stroke="black" cx="793" cy="-106" rx="36.096" ry="18"/>
<text text-anchor="middle" x="793" y="-102.3" font-family="Times,serif" font-size="14.00">ffjROF</text>
</g>
<!-- ffjSetup&#45;&gt;ffjROF -->
<g id="edge7" class="edge"><title>ffjSetup&#45;&gt;ffjROF</title>
<path fill="none" stroke="black" d="M478.713,-1070.38C593.686,-1061.88 932,-1032.97 932,-987 932,-987 932,-987 932,-193 932,-147.516 877.51,-125.275 836.764,-115.001"/>
<polygon fill="black" stroke="black" points="837.54,-111.589 827.003,-112.698 835.932,-118.401 837.54,-111.589"/>
<text text-anchor="middle" x="950.5" y="-586.3" font-family="Times,serif" font-size="14.00">gDone</text>
</g>
<!-- ffjFOR_Transist_start -->
<g id="node5" class="node"><title>ffjFOR_Transist_start</title>
<ellipse fill="none" stroke="black" cx="441" cy="-898" rx="88.0886" ry="18"/>
<text text-anchor="middle" x="441" y="-894.3" font-family="Times,serif" font-size="14.00">ffjFOR_Transist_start</text>
</g>
<!-- ffjFOR&#45;&gt;ffjFOR_Transist_start -->
<g id="edge8" class="edge"><title>ffjFOR&#45;&gt;ffjFOR_Transist_start</title>
<path fill="none" stroke="black" d="M441,-967.597C441,-955.746 441,-939.817 441,-926.292"/>
<polygon fill="black" stroke="black" points="444.5,-926.084 441,-916.084 437.5,-926.084 444.5,-926.084"/>
<text text-anchor="middle" x="467" y="-938.3" font-family="Times,serif" font-size="14.00">ffjLedger</text>
</g>
<!-- ffjFOR&#45;&gt;ffjFOR_Transist_start -->
<g id="edge9" class="edge"><title>ffjFOR&#45;&gt;ffjFOR_Transist_start</title>
<path fill="none" stroke="black" d="M468.003,-973.947C478.043,-968.355 488.358,-960.487 494,-950 499.93,-938.978 493.55,-928.92 483.416,-920.703"/>
<polygon fill="black" stroke="black" points="485.26,-917.72 475.078,-914.793 481.213,-923.431 485.26,-917.72"/>
<text text-anchor="middle" x="516" y="-938.3" font-family="Times,serif" font-size="14.00">Shared</text>
</g>
<!-- ffjFOR&#45;&gt;ffjFOR_Transist_start -->
<g id="edge10" class="edge"><title>ffjFOR&#45;&gt;ffjFOR_Transist_start</title>
<path fill="none" stroke="black" d="M409.88,-976.728C396.384,-971.427 381.888,-963.02 374,-950 366.347,-937.368 375.17,-926.763 388.656,-918.553"/>
<polygon fill="black" stroke="black" points="390.412,-921.583 397.55,-913.754 387.088,-915.423 390.412,-921.583"/>
<text text-anchor="middle" x="405.5" y="-938.3" font-family="Times,serif" font-size="14.00">gDoneROF</text>
</g>
<!-- DR_init -->
<g id="node6" class="node"><title>DR_init</title>
<ellipse fill="none" stroke="black" cx="441" cy="-810" rx="38.4949" ry="18"/>
<text text-anchor="middle" x="441" y="-806.3" font-family="Times,serif" font-size="14.00">DR_init</text>
</g>
<!-- ffjFOR_Transist_start&#45;&gt;DR_init -->
<g id="edge11" class="edge"><title>ffjFOR_Transist_start&#45;&gt;DR_init</title>
<path fill="none" stroke="black" d="M441,-879.597C441,-867.746 441,-851.817 441,-838.292"/>
<polygon fill="black" stroke="black" points="444.5,-838.084 441,-828.084 437.5,-838.084 444.5,-838.084"/>
<text text-anchor="middle" x="467" y="-850.3" font-family="Times,serif" font-size="14.00">ffjLedger</text>
</g>
<!-- ffjFOR_Transist_start&#45;&gt;DR_init -->
<g id="edge12" class="edge"><title>ffjFOR_Transist_start&#45;&gt;DR_init</title>
<path fill="none" stroke="black" d="M475.507,-881.321C482.909,-876.258 489.768,-869.866 494,-862 501.114,-848.776 490.51,-836.94 476.963,-828.007"/>
<polygon fill="black" stroke="black" points="478.663,-824.945 468.281,-822.833 475.08,-830.959 478.663,-824.945"/>
<text text-anchor="middle" x="516" y="-850.3" font-family="Times,serif" font-size="14.00">Shared</text>
</g>
<!-- ffjFOR_Transist_start&#45;&gt;DR_init -->
<g id="edge13" class="edge"><title>ffjFOR_Transist_start&#45;&gt;DR_init</title>
<path fill="none" stroke="black" d="M396.218,-882.271C387.384,-877.253 379.236,-870.643 374,-862 364.257,-845.918 381.22,-833.121 400.511,-824.369"/>
<polygon fill="black" stroke="black" points="401.87,-827.594 409.755,-820.517 399.178,-821.132 401.87,-827.594"/>
<text text-anchor="middle" x="405.5" y="-850.3" font-family="Times,serif" font-size="14.00">gDoneROF</text>
</g>
<!-- DR_reduxA_start -->
<g id="node7" class="node"><title>DR_reduxA_start</title>
<ellipse fill="none" stroke="black" cx="441" cy="-722" rx="73.1654" ry="18"/>
<text text-anchor="middle" x="441" y="-718.3" font-family="Times,serif" font-size="14.00">DR_reduxA_start</text>
</g>
<!-- DR_init&#45;&gt;DR_reduxA_start -->
<g id="edge14" class="edge"><title>DR_init&#45;&gt;DR_reduxA_start</title>
<path fill="none" stroke="black" d="M441,-791.597C441,-779.746 441,-763.817 441,-750.292"/>
<polygon fill="black" stroke="black" points="444.5,-750.084 441,-740.084 437.5,-750.084 444.5,-750.084"/>
<text text-anchor="middle" x="467" y="-762.3" font-family="Times,serif" font-size="14.00">ffjLedger</text>
</g>
<!-- DR_init&#45;&gt;DR_reduxA_start -->
<g id="edge15" class="edge"><title>DR_init&#45;&gt;DR_reduxA_start</title>
<path fill="none" stroke="black" d="M468.84,-797.476C478.613,-791.916 488.515,-784.196 494,-774 500.134,-762.598 493.096,-752.228 482.357,-743.861"/>
<polygon fill="black" stroke="black" points="484.243,-740.911 474.018,-738.136 480.281,-746.682 484.243,-740.911"/>
<text text-anchor="middle" x="525.5" y="-762.3" font-family="Times,serif" font-size="14.00">DRprivate</text>
</g>
<!-- DR_init&#45;&gt;DR_reduxA_start -->
<g id="edge16" class="edge"><title>DR_init&#45;&gt;DR_reduxA_start</title>
<path fill="none" stroke="black" d="M408.481,-800.169C395.392,-794.842 381.616,-786.571 374,-774 366.022,-760.831 375.95,-749.865 390.401,-741.519"/>
<polygon fill="black" stroke="black" points="392.05,-744.607 399.331,-736.91 388.84,-738.386 392.05,-744.607"/>
<text text-anchor="middle" x="405.5" y="-762.3" font-family="Times,serif" font-size="14.00">gDoneROF</text>
</g>
<!-- DR_reduxA_stop -->
<g id="node8" class="node"><title>DR_reduxA_stop</title>
<ellipse fill="none" stroke="black" cx="441" cy="-634" rx="72.192" ry="18"/>
<text text-anchor="middle" x="441" y="-630.3" font-family="Times,serif" font-size="14.00">DR_reduxA_stop</text>
</g>
<!-- DR_reduxA_start&#45;&gt;DR_reduxA_stop -->
<g id="edge17" class="edge"><title>DR_reduxA_start&#45;&gt;DR_reduxA_stop</title>
<path fill="none" stroke="black" d="M441,-703.597C441,-691.746 441,-675.817 441,-662.292"/>
<polygon fill="black" stroke="black" points="444.5,-662.084 441,-652.084 437.5,-662.084 444.5,-662.084"/>
<text text-anchor="middle" x="467" y="-674.3" font-family="Times,serif" font-size="14.00">ffjLedger</text>
</g>
<!-- DR_reduxA_start&#45;&gt;DR_reduxA_stop -->
<g id="edge18" class="edge"><title>DR_reduxA_start&#45;&gt;DR_reduxA_stop</title>
<path fill="none" stroke="black" d="M474.683,-705.878C482.397,-700.729 489.612,-694.157 494,-686 500.134,-674.598 493.096,-664.228 482.357,-655.861"/>
<polygon fill="black" stroke="black" points="484.243,-652.911 474.018,-650.136 480.281,-658.682 484.243,-652.911"/>
<text text-anchor="middle" x="525.5" y="-674.3" font-family="Times,serif" font-size="14.00">DRprivate</text>
</g>
<!-- DR_reduxA_start&#45;&gt;DR_reduxA_stop -->
<g id="edge19" class="edge"><title>DR_reduxA_start&#45;&gt;DR_reduxA_stop</title>
<path fill="none" stroke="black" d="M397.947,-707.228C388.454,-702.103 379.576,-695.204 374,-686 366.022,-672.831 375.95,-661.865 390.401,-653.519"/>
<polygon fill="black" stroke="black" points="392.05,-656.607 399.331,-648.91 388.84,-650.386 392.05,-656.607"/>
<text text-anchor="middle" x="405.5" y="-674.3" font-family="Times,serif" font-size="14.00">gDoneROF</text>
</g>
<!-- setupTailRecursion -->
<g id="node9" class="node"><title>setupTailRecursion</title>
<ellipse fill="none" stroke="black" cx="441" cy="-546" rx="78.9404" ry="18"/>
<text text-anchor="middle" x="441" y="-542.3" font-family="Times,serif" font-size="14.00">setupTailRecursion</text>
</g>
<!-- DR_reduxA_stop&#45;&gt;setupTailRecursion -->
<g id="edge20" class="edge"><title>DR_reduxA_stop&#45;&gt;setupTailRecursion</title>
<path fill="none" stroke="black" d="M441,-615.597C441,-603.746 441,-587.817 441,-574.292"/>
<polygon fill="black" stroke="black" points="444.5,-574.084 441,-564.084 437.5,-574.084 444.5,-574.084"/>
<text text-anchor="middle" x="467" y="-586.3" font-family="Times,serif" font-size="14.00">ffjLedger</text>
</g>
<!-- DR_reduxA_stop&#45;&gt;setupTailRecursion -->
<g id="edge21" class="edge"><title>DR_reduxA_stop&#45;&gt;setupTailRecursion</title>
<path fill="none" stroke="black" d="M474.683,-617.878C482.397,-612.729 489.612,-606.157 494,-598 500.085,-586.689 493.207,-576.393 482.612,-568.06"/>
<polygon fill="black" stroke="black" points="484.586,-565.17 474.372,-562.354 480.6,-570.925 484.586,-565.17"/>
<text text-anchor="middle" x="525.5" y="-586.3" font-family="Times,serif" font-size="14.00">DRprivate</text>
</g>
<!-- DR_reduxA_stop&#45;&gt;setupTailRecursion -->
<g id="edge22" class="edge"><title>DR_reduxA_stop&#45;&gt;setupTailRecursion</title>
<path fill="none" stroke="black" d="M398.294,-619.415C388.671,-614.27 379.644,-607.316 374,-598 366.222,-585.161 375.464,-574.416 389.323,-566.151"/>
<polygon fill="black" stroke="black" points="391.236,-569.099 398.439,-561.329 387.963,-562.912 391.236,-569.099"/>
<text text-anchor="middle" x="405.5" y="-586.3" font-family="Times,serif" font-size="14.00">gDoneROF</text>
</g>
<!-- tailRecursionIFThen -->
<g id="node10" class="node"><title>tailRecursionIFThen</title>
<ellipse fill="none" stroke="black" cx="361" cy="-458" rx="83.2892" ry="18"/>
<text text-anchor="middle" x="361" y="-454.3" font-family="Times,serif" font-size="14.00">tailRecursionIFThen</text>
</g>
<!-- setupTailRecursion&#45;&gt;tailRecursionIFThen -->
<g id="edge23" class="edge"><title>setupTailRecursion&#45;&gt;tailRecursionIFThen</title>
<path fill="none" stroke="black" stroke-dasharray="5,2" d="M436.562,-527.925C433.126,-517.252 427.496,-503.735 419,-494 414.48,-488.821 409,-484.182 403.234,-480.106"/>
<polygon fill="black" stroke="black" points="404.954,-477.05 394.661,-474.542 401.143,-482.922 404.954,-477.05"/>
<text text-anchor="middle" x="455" y="-498.3" font-family="Times,serif" font-size="14.00">ffjLedger</text>
</g>
<!-- setupTailRecursion&#45;&gt;tailRecursionIFThen -->
<g id="edge24" class="edge"><title>setupTailRecursion&#45;&gt;tailRecursionIFThen</title>
<path fill="none" stroke="black" stroke-dasharray="5,2" d="M468.839,-529.133C482.506,-519.284 494.245,-506.215 485,-494 478.149,-484.948 457.238,-477.572 434.493,-471.966"/>
<polygon fill="black" stroke="black" points="435.202,-468.537 424.669,-469.672 433.611,-475.354 435.202,-468.537"/>
<text text-anchor="middle" x="533.5" y="-498.3" font-family="Times,serif" font-size="14.00">TailRecurIterate</text>
</g>
<!-- setupTailRecursion&#45;&gt;tailRecursionIFThen -->
<g id="edge25" class="edge"><title>setupTailRecursion&#45;&gt;tailRecursionIFThen</title>
<path fill="none" stroke="black" stroke-dasharray="5,2" d="M370.477,-537.777C334.494,-532.481 296.015,-523.76 285,-510 274.261,-496.584 286.159,-485.402 303.484,-476.96"/>
<polygon fill="black" stroke="black" points="305.203,-480.028 312.948,-472.798 302.385,-473.62 305.203,-480.028"/>
<text text-anchor="middle" x="312" y="-498.3" font-family="Times,serif" font-size="14.00">gDoneTR</text>
</g>
<!-- setupTailRecursion&#45;&gt;tailRecursionIFThen -->
<g id="edge26" class="edge"><title>setupTailRecursion&#45;&gt;tailRecursionIFThen</title>
<path fill="none" stroke="black" stroke-dasharray="5,2" d="M386.631,-532.705C375.35,-527.568 364.831,-520.294 358,-510 353.379,-503.037 352.566,-494.291 353.384,-486.018"/>
<polygon fill="black" stroke="black" points="356.868,-486.412 355.128,-475.961 349.971,-485.216 356.868,-486.412"/>
<text text-anchor="middle" x="386.5" y="-498.3" font-family="Times,serif" font-size="14.00">DRprivate</text>
</g>
<!-- concludeTailRecursion -->
<g id="node14" class="node"><title>concludeTailRecursion</title>
<ellipse fill="none" stroke="black" cx="789" cy="-282" rx="91.9385" ry="18"/>
<text text-anchor="middle" x="789" y="-278.3" font-family="Times,serif" font-size="14.00">concludeTailRecursion</text>
</g>
<!-- setupTailRecursion&#45;&gt;concludeTailRecursion -->
<g id="edge27" class="edge"><title>setupTailRecursion&#45;&gt;concludeTailRecursion</title>
<path fill="none" stroke="black" d="M516.043,-540.244C609.845,-529.727 766.291,-496.006 834,-388 850.585,-361.544 843.163,-345.297 828,-318 825.804,-314.046 822.989,-310.307 819.88,-306.85"/>
<polygon fill="black" stroke="black" points="822.292,-304.313 812.727,-299.756 817.362,-309.283 822.292,-304.313"/>
<text text-anchor="middle" x="850.5" y="-410.3" font-family="Times,serif" font-size="14.00">gDoneROF</text>
</g>
<!-- tailRecursionELSE -->
<g id="node11" class="node"><title>tailRecursionELSE</title>
<ellipse fill="none" stroke="black" cx="747" cy="-370" rx="78.4642" ry="18"/>
<text text-anchor="middle" x="747" y="-366.3" font-family="Times,serif" font-size="14.00">tailRecursionELSE</text>
</g>
<!-- tailRecursionIFThen&#45;&gt;tailRecursionELSE -->
<g id="edge28" class="edge"><title>tailRecursionIFThen&#45;&gt;tailRecursionELSE</title>
<path fill="none" stroke="black" d="M436.331,-450.385C485.428,-445.071 550.612,-436.119 607,-422 639.518,-413.858 674.987,-400.891 702.088,-390.07"/>
<polygon fill="black" stroke="black" points="703.715,-393.188 711.674,-386.193 701.091,-386.698 703.715,-393.188"/>
<text text-anchor="middle" x="691.5" y="-410.3" font-family="Times,serif" font-size="14.00">ELSEclause</text>
</g>
<!-- DR_reduxB_start -->
<g id="node12" class="node"><title>DR_reduxB_start</title>
<ellipse fill="none" stroke="black" cx="318" cy="-370" rx="72.192" ry="18"/>
<text text-anchor="middle" x="318" y="-366.3" font-family="Times,serif" font-size="14.00">DR_reduxB_start</text>
</g>
<!-- tailRecursionIFThen&#45;&gt;DR_reduxB_start -->
<g id="edge29" class="edge"><title>tailRecursionIFThen&#45;&gt;DR_reduxB_start</title>
<path fill="none" stroke="black" d="M339.307,-440.409C333.795,-435.121 328.46,-428.846 325,-422 321.356,-414.79 319.413,-406.313 318.424,-398.363"/>
<polygon fill="black" stroke="black" points="321.91,-398.049 317.609,-388.367 314.933,-398.618 321.91,-398.049"/>
<text text-anchor="middle" x="351" y="-410.3" font-family="Times,serif" font-size="14.00">ffjLedger</text>
</g>
<!-- tailRecursionIFThen&#45;&gt;DR_reduxB_start -->
<g id="edge30" class="edge"><title>tailRecursionIFThen&#45;&gt;DR_reduxB_start</title>
<path fill="none" stroke="black" d="M373.151,-439.716C378.751,-429.471 382.97,-416.483 377,-406 373.79,-400.363 369.275,-395.54 364.155,-391.44"/>
<polygon fill="black" stroke="black" points="365.924,-388.408 355.714,-385.58 361.932,-394.158 365.924,-388.408"/>
<text text-anchor="middle" x="424.5" y="-410.3" font-family="Times,serif" font-size="14.00">TailRecurIterate</text>
</g>
<!-- tailRecursionIFThen&#45;&gt;DR_reduxB_start -->
<g id="edge31" class="edge"><title>tailRecursionIFThen&#45;&gt;DR_reduxB_start</title>
<path fill="none" stroke="black" d="M281.503,-452.687C235.012,-448.315 182.65,-439.546 168,-422 163.442,-416.541 163.58,-411.57 168,-406 170.873,-402.379 214.409,-392.458 253.839,-384.099"/>
<polygon fill="black" stroke="black" points="254.684,-387.498 263.749,-382.013 253.242,-380.648 254.684,-387.498"/>
<text text-anchor="middle" x="195" y="-410.3" font-family="Times,serif" font-size="14.00">gDoneTR</text>
</g>
<!-- tailRecursionIFThen&#45;&gt;DR_reduxB_start -->
<g id="edge32" class="edge"><title>tailRecursionIFThen&#45;&gt;DR_reduxB_start</title>
<path fill="none" stroke="black" d="M294.472,-447.204C280.599,-441.977 267.595,-434.036 259,-422 250.594,-410.229 259.478,-399.401 272.685,-390.779"/>
<polygon fill="black" stroke="black" points="274.489,-393.779 281.352,-385.707 270.953,-387.737 274.489,-393.779"/>
<text text-anchor="middle" x="287.5" y="-410.3" font-family="Times,serif" font-size="14.00">DRprivate</text>
</g>
<!-- tailRecursionELSE&#45;&gt;concludeTailRecursion -->
<g id="edge33" class="edge"><title>tailRecursionELSE&#45;&gt;concludeTailRecursion</title>
<path fill="none" stroke="black" d="M755.298,-352.009C761.28,-339.759 769.466,-322.998 776.272,-309.062"/>
<polygon fill="black" stroke="black" points="779.476,-310.477 780.719,-299.956 773.186,-307.405 779.476,-310.477"/>
<text text-anchor="middle" x="798" y="-322.3" font-family="Times,serif" font-size="14.00">ffjLedger</text>
</g>
<!-- DR_reduxB_stop -->
<g id="node13" class="node"><title>DR_reduxB_stop</title>
<ellipse fill="none" stroke="black" cx="284" cy="-282" rx="72.2155" ry="18"/>
<text text-anchor="middle" x="284" y="-278.3" font-family="Times,serif" font-size="14.00">DR_reduxB_stop</text>
</g>
<!-- DR_reduxB_start&#45;&gt;DR_reduxB_stop -->
<g id="edge34" class="edge"><title>DR_reduxB_start&#45;&gt;DR_reduxB_stop</title>
<path fill="none" stroke="black" d="M273.426,-355.795C263.371,-350.645 253.929,-343.593 248,-334 242.271,-324.73 246.596,-314.875 253.96,-306.324"/>
<polygon fill="black" stroke="black" points="256.478,-308.755 261.039,-299.192 251.51,-303.824 256.478,-308.755"/>
<text text-anchor="middle" x="274" y="-322.3" font-family="Times,serif" font-size="14.00">ffjLedger</text>
</g>
<!-- DR_reduxB_start&#45;&gt;DR_reduxB_stop -->
<g id="edge35" class="edge"><title>DR_reduxB_start&#45;&gt;DR_reduxB_stop</title>
<path fill="none" stroke="black" d="M312.377,-351.857C309.003,-341.893 304.503,-329.143 300,-318 298.836,-315.12 297.567,-312.131 296.269,-309.168"/>
<polygon fill="black" stroke="black" points="299.419,-307.638 292.121,-299.957 293.036,-310.512 299.419,-307.638"/>
<text text-anchor="middle" x="350.5" y="-322.3" font-family="Times,serif" font-size="14.00">TailRecurIterate</text>
</g>
<!-- DR_reduxB_start&#45;&gt;DR_reduxB_stop -->
<g id="edge36" class="edge"><title>DR_reduxB_start&#45;&gt;DR_reduxB_stop</title>
<path fill="none" stroke="black" d="M366.898,-356.712C390.772,-348.238 411.861,-335.358 399,-318 389.624,-305.345 375.781,-297.11 360.921,-291.788"/>
<polygon fill="black" stroke="black" points="361.634,-288.344 351.045,-288.695 359.542,-295.024 361.634,-288.344"/>
<text text-anchor="middle" x="430" y="-322.3" font-family="Times,serif" font-size="14.00">gDoneTR</text>
</g>
<!-- DR_reduxB_start&#45;&gt;DR_reduxB_stop -->
<g id="edge37" class="edge"><title>DR_reduxB_start&#45;&gt;DR_reduxB_stop</title>
<path fill="none" stroke="black" d="M263.596,-357.949C229.12,-350.395 190.084,-340.595 185,-334 171.018,-315.862 191.17,-303.59 216.863,-295.639"/>
<polygon fill="black" stroke="black" points="217.858,-298.995 226.526,-292.903 215.951,-292.26 217.858,-298.995"/>
<text text-anchor="middle" x="213.5" y="-322.3" font-family="Times,serif" font-size="14.00">DRprivate</text>
</g>
<!-- DR_reduxB_stop&#45;&gt;tailRecursionIFThen -->
<g id="edge38" class="edge"><title>DR_reduxB_stop&#45;&gt;tailRecursionIFThen</title>
<path fill="none" stroke="black" stroke-dasharray="5,2" d="M216.832,-288.71C138.038,-298.42 22.5901,-323.802 60,-388 81.4204,-424.759 191.973,-442.46 272.907,-450.605"/>
<polygon fill="black" stroke="black" points="272.828,-454.114 283.12,-451.598 273.506,-447.147 272.828,-454.114"/>
<text text-anchor="middle" x="86" y="-366.3" font-family="Times,serif" font-size="14.00">ffjLedger</text>
</g>
<!-- DR_reduxB_stop&#45;&gt;tailRecursionIFThen -->
<g id="edge39" class="edge"><title>DR_reduxB_stop&#45;&gt;tailRecursionIFThen</title>
<path fill="none" stroke="black" stroke-dasharray="5,2" d="M231.141,-294.263C213.027,-299.643 193.246,-307.31 177,-318 160.165,-329.077 154.127,-333.15 147,-352 141.341,-366.966 143.895,-372.304 147,-388 150.171,-404.031 148.259,-411.766 161,-422 178.57,-436.113 228.485,-444.86 274.05,-450.08"/>
<polygon fill="black" stroke="black" points="273.673,-453.559 283.995,-451.173 274.437,-446.601 273.673,-453.559"/>
<text text-anchor="middle" x="191.5" y="-366.3" font-family="Times,serif" font-size="14.00">TailRecurIterate</text>
</g>
<!-- DR_reduxB_stop&#45;&gt;tailRecursionIFThen -->
<g id="edge40" class="edge"><title>DR_reduxB_stop&#45;&gt;tailRecursionIFThen</title>
<path fill="none" stroke="black" stroke-dasharray="5,2" d="M351.766,-288.32C395.173,-293.197 446.072,-302.154 461,-318 539.489,-401.32 490.195,-398.611 473,-422 465.259,-432.529 454.365,-439.979 442.385,-445.232"/>
<polygon fill="black" stroke="black" points="441.115,-441.97 433.045,-448.835 443.635,-448.501 441.115,-441.97"/>
<text text-anchor="middle" x="532" y="-366.3" font-family="Times,serif" font-size="14.00">gDoneTR</text>
</g>
<!-- DR_reduxB_stop&#45;&gt;tailRecursionIFThen -->
<g id="edge41" class="edge"><title>DR_reduxB_stop&#45;&gt;tailRecursionIFThen</title>
<path fill="none" stroke="black" stroke-dasharray="5,2" d="M350.043,-289.23C424.922,-297.918 539.668,-316.732 563,-352 597.887,-404.734 510.29,-432.563 439.667,-446.022"/>
<polygon fill="black" stroke="black" points="439.033,-442.579 429.828,-447.826 440.296,-449.464 439.033,-442.579"/>
<text text-anchor="middle" x="599.5" y="-366.3" font-family="Times,serif" font-size="14.00">DRprivate</text>
</g>
<!-- ffjFOR_Transist_stop -->
<g id="node15" class="node"><title>ffjFOR_Transist_stop</title>
<ellipse fill="none" stroke="black" cx="793" cy="-194" rx="87.613" ry="18"/>
<text text-anchor="middle" x="793" y="-190.3" font-family="Times,serif" font-size="14.00">ffjFOR_Transist_stop</text>
</g>
<!-- concludeTailRecursion&#45;&gt;ffjFOR_Transist_stop -->
<g id="edge42" class="edge"><title>concludeTailRecursion&#45;&gt;ffjFOR_Transist_stop</title>
<path fill="none" stroke="black" d="M756.346,-265.161C742.26,-256.002 730.528,-243.611 738,-230 740.757,-224.977 744.575,-220.572 748.926,-216.737"/>
<polygon fill="black" stroke="black" points="751.372,-219.275 757.219,-210.439 747.138,-213.7 751.372,-219.275"/>
<text text-anchor="middle" x="764" y="-234.3" font-family="Times,serif" font-size="14.00">ffjLedger</text>
</g>
<!-- concludeTailRecursion&#45;&gt;ffjFOR_Transist_stop -->
<g id="edge43" class="edge"><title>concludeTailRecursion&#45;&gt;ffjFOR_Transist_stop</title>
<path fill="none" stroke="black" d="M789.809,-263.597C790.361,-251.746 791.102,-235.817 791.731,-222.292"/>
<polygon fill="black" stroke="black" points="795.237,-222.236 792.205,-212.084 788.244,-221.911 795.237,-222.236"/>
<text text-anchor="middle" x="823.5" y="-234.3" font-family="Times,serif" font-size="14.00">gDoneROF</text>
</g>
<!-- ffjFOR_Transist_stop&#45;&gt;ffjROF -->
<g id="edge44" class="edge"><title>ffjFOR_Transist_stop&#45;&gt;ffjROF</title>
<path fill="none" stroke="black" d="M793,-175.597C793,-163.746 793,-147.817 793,-134.292"/>
<polygon fill="black" stroke="black" points="796.5,-134.084 793,-124.084 789.5,-134.084 796.5,-134.084"/>
<text text-anchor="middle" x="801.5" y="-146.3" font-family="Times,serif" font-size="14.00">0G</text>
</g>
<!-- ffjROF&#45;&gt;finalEDT -->
<g id="edge45" class="edge"><title>ffjROF&#45;&gt;finalEDT</title>
<path fill="none" stroke="black" d="M758.472,-99.9414C659.471,-85.437 374.248,-43.6496 257.129,-26.4907"/>
<polygon fill="black" stroke="black" points="257.395,-22.9925 246.993,-25.0058 256.38,-29.9186 257.395,-22.9925"/>
<text text-anchor="middle" x="561.5" y="-58.3" font-family="Times,serif" font-size="14.00">0G</text>
</g>
</g>
</svg>
