<?xml version="1.0" encoding="UTF-8" standalone="no"?>
<!DOCTYPE svg PUBLIC "-//W3C//DTD SVG 1.1//EN"
 "http://www.w3.org/Graphics/SVG/1.1/DTD/svg11.dtd">
<!-- Generated by graphviz version 2.30.1 (20141125.1714)
 -->
<!-- Title: utest_DaveReduction Pages: 1 -->
<svg width="498pt" height="396pt"
 viewBox="0.00 0.00 498.00 396.00" xmlns="http://www.w3.org/2000/svg" xmlns:xlink="http://www.w3.org/1999/xlink">
<g id="graph0" class="graph" transform="scale(1 1) rotate(0) translate(4 392)">
<title>utest_DaveReduction</title>
<polygon fill="white" stroke="white" points="-4,5 -4,-392 495,-392 495,5 -4,5"/>
<!-- mainEdt -->
<g id="node1" class="node"><title>mainEdt</title>
<ellipse fill="none" stroke="black" cx="188" cy="-370" rx="40.4202" ry="18"/>
<text text-anchor="middle" x="188" y="-366.3" font-family="Times,serif" font-size="14.00">mainEdt</text>
</g>
<!-- finalEDT -->
<g id="node2" class="node"><title>finalEDT</title>
<ellipse fill="none" stroke="black" cx="116" cy="-18" rx="44.2946" ry="18"/>
<text text-anchor="middle" x="116" y="-14.3" font-family="Times,serif" font-size="14.00">finalEDT</text>
</g>
<!-- mainEdt&#45;&gt;finalEDT -->
<g id="edge1" class="edge"><title>mainEdt&#45;&gt;finalEDT</title>
<path fill="none" stroke="black" d="M147.669,-367.81C92.4287,-363.786 0,-347.426 0,-283 0,-283 0,-283 0,-105 0,-68.0357 38.4804,-45.1226 71.1151,-32.337"/>
<polygon fill="black" stroke="black" points="72.4001,-35.5935 80.5659,-28.8429 69.9726,-29.0278 72.4001,-35.5935"/>
<text text-anchor="middle" x="23" y="-190.3" font-family="Times,serif" font-size="14.00">sharedG</text>
</g>
<!-- LeftEDT_init -->
<g id="node3" class="node"><title>LeftEDT_init</title>
<ellipse fill="none" stroke="black" cx="116" cy="-282" rx="58.2422" ry="18"/>
<text text-anchor="middle" x="116" y="-278.3" font-family="Times,serif" font-size="14.00">LeftEDT_init</text>
</g>
<!-- mainEdt&#45;&gt;LeftEDT_init -->
<g id="edge2" class="edge"><title>mainEdt&#45;&gt;LeftEDT_init</title>
<path fill="none" stroke="black" d="M148.956,-364.975C110.595,-360.119 55.9761,-350.481 43,-334 31.6476,-319.581 46.5176,-307.569 65.7333,-298.832"/>
<polygon fill="black" stroke="black" points="67.2167,-302.005 75.103,-294.93 64.5259,-295.543 67.2167,-302.005"/>
<text text-anchor="middle" x="68.5" y="-322.3" font-family="Times,serif" font-size="14.00">workLeft</text>
</g>
<!-- mainEdt&#45;&gt;LeftEDT_init -->
<g id="edge3" class="edge"><title>mainEdt&#45;&gt;LeftEDT_init</title>
<path fill="none" stroke="black" d="M153.345,-360.425C139.618,-355.164 125.183,-346.874 117,-334 112.64,-327.14 111.278,-318.644 111.324,-310.566"/>
<polygon fill="black" stroke="black" points="114.832,-310.588 112.063,-300.361 107.85,-310.082 114.832,-310.588"/>
<text text-anchor="middle" x="141.5" y="-322.3" font-family="Times,serif" font-size="14.00">doneLeft</text>
</g>
<!-- mainEdt&#45;&gt;LeftEDT_init -->
<g id="edge4" class="edge"><title>mainEdt&#45;&gt;LeftEDT_init</title>
<path fill="none" stroke="black" d="M183.334,-352.117C179.807,-341.521 174.162,-328.018 166,-318 161.871,-312.933 156.829,-308.275 151.554,-304.124"/>
<polygon fill="black" stroke="black" points="153.316,-301.078 143.169,-298.032 149.202,-306.742 153.316,-301.078"/>
<text text-anchor="middle" x="198" y="-322.3" font-family="Times,serif" font-size="14.00">sharedL</text>
</g>
<!-- RightEDT_init -->
<g id="node4" class="node"><title>RightEDT_init</title>
<ellipse fill="none" stroke="black" cx="351" cy="-282" rx="63.5411" ry="18"/>
<text text-anchor="middle" x="351" y="-278.3" font-family="Times,serif" font-size="14.00">RightEDT_init</text>
</g>
<!-- mainEdt&#45;&gt;RightEDT_init -->
<g id="edge5" class="edge"><title>mainEdt&#45;&gt;RightEDT_init</title>
<path fill="none" stroke="black" d="M205.493,-353.624C218.684,-342.61 237.593,-328.014 256,-318 269.423,-310.698 284.685,-304.318 298.99,-299.078"/>
<polygon fill="black" stroke="black" points="300.449,-302.274 308.705,-295.634 298.11,-295.676 300.449,-302.274"/>
<text text-anchor="middle" x="278.5" y="-322.3" font-family="Times,serif" font-size="14.00">sharedR</text>
</g>
<!-- mainEdt&#45;&gt;RightEDT_init -->
<g id="edge6" class="edge"><title>mainEdt&#45;&gt;RightEDT_init</title>
<path fill="none" stroke="black" d="M224.783,-362.437C247.871,-357.185 277.595,-348.28 301,-334 312.412,-327.037 323.08,-316.894 331.606,-307.484"/>
<polygon fill="black" stroke="black" points="334.329,-309.686 338.234,-299.837 329.039,-305.101 334.329,-309.686"/>
<text text-anchor="middle" x="350" y="-322.3" font-family="Times,serif" font-size="14.00">workRight</text>
</g>
<!-- mainEdt&#45;&gt;RightEDT_init -->
<g id="edge7" class="edge"><title>mainEdt&#45;&gt;RightEDT_init</title>
<path fill="none" stroke="black" d="M228.208,-367.607C279.191,-364.896 362.796,-356.978 382,-334 388.886,-325.76 385.116,-315.833 378.189,-306.935"/>
<polygon fill="black" stroke="black" points="380.759,-304.559 371.477,-299.45 375.547,-309.232 380.759,-304.559"/>
<text text-anchor="middle" x="414.5" y="-322.3" font-family="Times,serif" font-size="14.00">doneRight</text>
</g>
<!-- LeftEDT_start -->
<g id="node5" class="node"><title>LeftEDT_start</title>
<ellipse fill="none" stroke="black" cx="126" cy="-194" rx="61.6163" ry="18"/>
<text text-anchor="middle" x="126" y="-190.3" font-family="Times,serif" font-size="14.00">LeftEDT_start</text>
</g>
<!-- LeftEDT_init&#45;&gt;LeftEDT_start -->
<g id="edge8" class="edge"><title>LeftEDT_init&#45;&gt;LeftEDT_start</title>
<path fill="none" stroke="black" d="M74.7568,-269.245C52.3916,-260.622 31.4598,-247.391 43,-230 49.0244,-220.921 57.9174,-214.192 67.6713,-209.205"/>
<polygon fill="black" stroke="black" points="69.1258,-212.389 76.8134,-205.099 66.2573,-206.004 69.1258,-212.389"/>
<text text-anchor="middle" x="68.5" y="-234.3" font-family="Times,serif" font-size="14.00">workLeft</text>
</g>
<!-- LeftEDT_init&#45;&gt;LeftEDT_start -->
<g id="edge9" class="edge"><title>LeftEDT_init&#45;&gt;LeftEDT_start</title>
<path fill="none" stroke="black" d="M115.35,-263.924C115.217,-253.981 115.467,-241.231 117,-230 117.349,-227.443 117.818,-224.805 118.36,-222.177"/>
<polygon fill="black" stroke="black" points="121.803,-222.827 120.707,-212.289 114.992,-221.21 121.803,-222.827"/>
<text text-anchor="middle" x="153.5" y="-234.3" font-family="Times,serif" font-size="14.00">ReducPrivate</text>
</g>
<!-- LeftEDT_init&#45;&gt;LeftEDT_start -->
<g id="edge10" class="edge"><title>LeftEDT_init&#45;&gt;LeftEDT_start</title>
<path fill="none" stroke="black" d="M159.586,-269.912C171.481,-264.673 183.005,-257.046 190,-246 198.324,-232.855 187.815,-221.624 173.063,-213.075"/>
<polygon fill="black" stroke="black" points="174.484,-209.869 163.997,-208.357 171.252,-216.078 174.484,-209.869"/>
<text text-anchor="middle" x="217.5" y="-234.3" font-family="Times,serif" font-size="14.00">doneLeft</text>
</g>
<!-- RightEDT_start -->
<g id="node6" class="node"><title>RightEDT_start</title>
<ellipse fill="none" stroke="black" cx="380" cy="-194" rx="66.4165" ry="18"/>
<text text-anchor="middle" x="380" y="-190.3" font-family="Times,serif" font-size="14.00">RightEDT_start</text>
</g>
<!-- RightEDT_init&#45;&gt;RightEDT_start -->
<g id="edge11" class="edge"><title>RightEDT_init&#45;&gt;RightEDT_start</title>
<path fill="none" stroke="black" d="M311.851,-267.731C291.956,-258.749 274.067,-245.679 285,-230 292.139,-219.761 302.628,-212.509 314.059,-207.376"/>
<polygon fill="black" stroke="black" points="315.366,-210.623 323.382,-203.696 312.796,-204.112 315.366,-210.623"/>
<text text-anchor="middle" x="321.5" y="-234.3" font-family="Times,serif" font-size="14.00">ReducPrivate</text>
</g>
<!-- RightEDT_init&#45;&gt;RightEDT_start -->
<g id="edge12" class="edge"><title>RightEDT_init&#45;&gt;RightEDT_start</title>
<path fill="none" stroke="black" d="M356.729,-264.009C360.821,-251.877 366.404,-235.32 371.076,-221.465"/>
<polygon fill="black" stroke="black" points="374.404,-222.55 374.282,-211.956 367.771,-220.313 374.404,-222.55"/>
<text text-anchor="middle" x="398" y="-234.3" font-family="Times,serif" font-size="14.00">workRight</text>
</g>
<!-- RightEDT_init&#45;&gt;RightEDT_start -->
<g id="edge13" class="edge"><title>RightEDT_init&#45;&gt;RightEDT_start</title>
<path fill="none" stroke="black" d="M399.287,-270.165C411.696,-264.963 423.615,-257.292 431,-246 438.17,-235.038 430.964,-224.518 419.934,-215.911"/>
<polygon fill="black" stroke="black" points="421.595,-212.804 411.378,-210.002 417.617,-218.564 421.595,-212.804"/>
<text text-anchor="middle" x="461.5" y="-234.3" font-family="Times,serif" font-size="14.00">doneRight</text>
</g>
<!-- LeftEDT_stop -->
<g id="node7" class="node"><title>LeftEDT_stop</title>
<ellipse fill="none" stroke="black" cx="116" cy="-106" rx="61.6163" ry="18"/>
<text text-anchor="middle" x="116" y="-102.3" font-family="Times,serif" font-size="14.00">LeftEDT_stop</text>
</g>
<!-- LeftEDT_start&#45;&gt;LeftEDT_stop -->
<g id="edge14" class="edge"><title>LeftEDT_start&#45;&gt;LeftEDT_stop</title>
<path fill="none" stroke="black" d="M76.8134,-182.901C63.6309,-177.708 50.8687,-169.858 43,-158 33.3184,-143.41 46.4916,-131.748 64.192,-123.278"/>
<polygon fill="black" stroke="black" points="65.9729,-126.321 73.7638,-119.141 63.1959,-119.896 65.9729,-126.321"/>
<text text-anchor="middle" x="68.5" y="-146.3" font-family="Times,serif" font-size="14.00">workLeft</text>
</g>
<!-- LeftEDT_start&#45;&gt;LeftEDT_stop -->
<g id="edge15" class="edge"><title>LeftEDT_start&#45;&gt;LeftEDT_stop</title>
<path fill="none" stroke="black" d="M120.707,-175.711C119.223,-170.115 117.798,-163.843 117,-158 115.946,-150.278 115.499,-141.839 115.365,-134.088"/>
<polygon fill="black" stroke="black" points="118.865,-134.071 115.35,-124.076 111.865,-134.082 118.865,-134.071"/>
<text text-anchor="middle" x="153.5" y="-146.3" font-family="Times,serif" font-size="14.00">ReducPrivate</text>
</g>
<!-- LeftEDT_start&#45;&gt;LeftEDT_stop -->
<g id="edge16" class="edge"><title>LeftEDT_start&#45;&gt;LeftEDT_stop</title>
<path fill="none" stroke="black" d="M163.997,-179.643C182.965,-170.71 199.957,-157.724 190,-142 185.031,-134.152 177.775,-128.031 169.725,-123.265"/>
<polygon fill="black" stroke="black" points="171.236,-120.106 160.748,-118.608 168.013,-126.32 171.236,-120.106"/>
<text text-anchor="middle" x="217.5" y="-146.3" font-family="Times,serif" font-size="14.00">doneLeft</text>
</g>
<!-- RightEDT_stop -->
<g id="node8" class="node"><title>RightEDT_stop</title>
<ellipse fill="none" stroke="black" cx="332" cy="-106" rx="65.9423" ry="18"/>
<text text-anchor="middle" x="332" y="-102.3" font-family="Times,serif" font-size="14.00">RightEDT_stop</text>
</g>
<!-- RightEDT_start&#45;&gt;RightEDT_stop -->
<g id="edge17" class="edge"><title>RightEDT_start&#45;&gt;RightEDT_stop</title>
<path fill="none" stroke="black" d="M323.382,-184.304C308.476,-179.154 294.048,-170.976 285,-158 277.74,-147.589 284.428,-137.104 294.809,-128.372"/>
<polygon fill="black" stroke="black" points="296.955,-131.137 302.873,-122.349 292.767,-125.529 296.955,-131.137"/>
<text text-anchor="middle" x="321.5" y="-146.3" font-family="Times,serif" font-size="14.00">ReducPrivate</text>
</g>
<!-- RightEDT_start&#45;&gt;RightEDT_stop -->
<g id="edge18" class="edge"><title>RightEDT_start&#45;&gt;RightEDT_stop</title>
<path fill="none" stroke="black" d="M373.809,-175.99C369.838,-165.841 364.262,-152.859 358,-142 356.112,-138.725 353.971,-135.397 351.748,-132.159"/>
<polygon fill="black" stroke="black" points="354.479,-129.963 345.788,-123.904 348.803,-134.06 354.479,-129.963"/>
<text text-anchor="middle" x="395" y="-146.3" font-family="Times,serif" font-size="14.00">workRight</text>
</g>
<!-- RightEDT_start&#45;&gt;RightEDT_stop -->
<g id="edge19" class="edge"><title>RightEDT_start&#45;&gt;RightEDT_stop</title>
<path fill="none" stroke="black" d="M409.689,-177.731C424.349,-168.099 437.133,-155.05 428,-142 420.697,-131.564 409.938,-124.228 398.236,-119.075"/>
<polygon fill="black" stroke="black" points="399.287,-115.729 388.698,-115.393 396.766,-122.26 399.287,-115.729"/>
<text text-anchor="middle" x="459.5" y="-146.3" font-family="Times,serif" font-size="14.00">doneRight</text>
</g>
<!-- LeftEDT_stop&#45;&gt;finalEDT -->
<g id="edge20" class="edge"><title>LeftEDT_stop&#45;&gt;finalEDT</title>
<path fill="none" stroke="black" d="M116,-87.5966C116,-75.7459 116,-59.8169 116,-46.2917"/>
<polygon fill="black" stroke="black" points="119.5,-46.084 116,-36.084 112.5,-46.084 119.5,-46.084"/>
<text text-anchor="middle" x="124.5" y="-58.3" font-family="Times,serif" font-size="14.00">0G</text>
</g>
<!-- RightEDT_stop&#45;&gt;finalEDT -->
<g id="edge21" class="edge"><title>RightEDT_stop&#45;&gt;finalEDT</title>
<path fill="none" stroke="black" d="M296.332,-90.7988C257.699,-75.4171 196.212,-50.9362 155.974,-34.9155"/>
<polygon fill="black" stroke="black" points="157.064,-31.5824 146.479,-31.135 154.475,-38.0859 157.064,-31.5824"/>
<text text-anchor="middle" x="252.5" y="-58.3" font-family="Times,serif" font-size="14.00">0G</text>
</g>
</g>
</svg>
