<?xml version="1.0" encoding="UTF-8" standalone="no"?>
<!DOCTYPE svg PUBLIC "-//W3C//DTD SVG 1.1//EN"
 "http://www.w3.org/Graphics/SVG/1.1/DTD/svg11.dtd">
<!-- Generated by graphviz version 2.30.1 (20141125.1714)
 -->
<!-- Title: utest_DaveReduction Pages: 1 -->
<svg width="506pt" height="572pt"
 viewBox="0.00 0.00 506.00 572.00" xmlns="http://www.w3.org/2000/svg" xmlns:xlink="http://www.w3.org/1999/xlink">
<g id="graph0" class="graph" transform="scale(1 1) rotate(0) translate(4 568)">
<title>utest_DaveReduction</title>
<polygon fill="white" stroke="white" points="-4,5 -4,-568 503,-568 503,5 -4,5"/>
<!-- mainEdt -->
<g id="node1" class="node"><title>mainEdt</title>
<ellipse fill="none" stroke="black" cx="188" cy="-546" rx="40.4202" ry="18"/>
<text text-anchor="middle" x="188" y="-542.3" font-family="Times,serif" font-size="14.00">mainEdt</text>
</g>
<!-- finalEDT -->
<g id="node2" class="node"><title>finalEDT</title>
<ellipse fill="none" stroke="black" cx="116" cy="-18" rx="44.2946" ry="18"/>
<text text-anchor="middle" x="116" y="-14.3" font-family="Times,serif" font-size="14.00">finalEDT</text>
</g>
<!-- mainEdt&#45;&gt;finalEDT -->
<g id="edge1" class="edge"><title>mainEdt&#45;&gt;finalEDT</title>
<path fill="none" stroke="black" d="M147.669,-543.81C92.4287,-539.786 0,-523.426 0,-459 0,-459 0,-459 0,-105 0,-68.0357 38.4804,-45.1226 71.1151,-32.337"/>
<polygon fill="black" stroke="black" points="72.4001,-35.5935 80.5659,-28.8429 69.9726,-29.0278 72.4001,-35.5935"/>
<text text-anchor="middle" x="23" y="-278.3" font-family="Times,serif" font-size="14.00">sharedG</text>
</g>
<!-- LeftEDT_init -->
<g id="node3" class="node"><title>LeftEDT_init</title>
<ellipse fill="none" stroke="black" cx="116" cy="-458" rx="58.2422" ry="18"/>
<text text-anchor="middle" x="116" y="-454.3" font-family="Times,serif" font-size="14.00">LeftEDT_init</text>
</g>
<!-- mainEdt&#45;&gt;LeftEDT_init -->
<g id="edge2" class="edge"><title>mainEdt&#45;&gt;LeftEDT_init</title>
<path fill="none" stroke="black" d="M148.956,-540.975C110.595,-536.119 55.9761,-526.481 43,-510 31.6476,-495.581 46.5176,-483.569 65.7333,-474.832"/>
<polygon fill="black" stroke="black" points="67.2167,-478.005 75.103,-470.93 64.5259,-471.543 67.2167,-478.005"/>
<text text-anchor="middle" x="68.5" y="-498.3" font-family="Times,serif" font-size="14.00">workLeft</text>
</g>
<!-- mainEdt&#45;&gt;LeftEDT_init -->
<g id="edge3" class="edge"><title>mainEdt&#45;&gt;LeftEDT_init</title>
<path fill="none" stroke="black" d="M153.345,-536.425C139.618,-531.164 125.183,-522.874 117,-510 112.64,-503.14 111.278,-494.644 111.324,-486.566"/>
<polygon fill="black" stroke="black" points="114.832,-486.588 112.063,-476.361 107.85,-486.082 114.832,-486.588"/>
<text text-anchor="middle" x="141.5" y="-498.3" font-family="Times,serif" font-size="14.00">doneLeft</text>
</g>
<!-- mainEdt&#45;&gt;LeftEDT_init -->
<g id="edge4" class="edge"><title>mainEdt&#45;&gt;LeftEDT_init</title>
<path fill="none" stroke="black" d="M183.334,-528.117C179.807,-517.521 174.162,-504.018 166,-494 161.871,-488.933 156.829,-484.275 151.554,-480.124"/>
<polygon fill="black" stroke="black" points="153.316,-477.078 143.169,-474.032 149.202,-482.742 153.316,-477.078"/>
<text text-anchor="middle" x="198" y="-498.3" font-family="Times,serif" font-size="14.00">sharedL</text>
</g>
<!-- RightEDT_init -->
<g id="node4" class="node"><title>RightEDT_init</title>
<ellipse fill="none" stroke="black" cx="351" cy="-458" rx="63.5411" ry="18"/>
<text text-anchor="middle" x="351" y="-454.3" font-family="Times,serif" font-size="14.00">RightEDT_init</text>
</g>
<!-- mainEdt&#45;&gt;RightEDT_init -->
<g id="edge5" class="edge"><title>mainEdt&#45;&gt;RightEDT_init</title>
<path fill="none" stroke="black" d="M205.493,-529.624C218.684,-518.61 237.593,-504.014 256,-494 269.423,-486.698 284.685,-480.318 298.99,-475.078"/>
<polygon fill="black" stroke="black" points="300.449,-478.274 308.705,-471.634 298.11,-471.676 300.449,-478.274"/>
<text text-anchor="middle" x="278.5" y="-498.3" font-family="Times,serif" font-size="14.00">sharedR</text>
</g>
<!-- mainEdt&#45;&gt;RightEDT_init -->
<g id="edge6" class="edge"><title>mainEdt&#45;&gt;RightEDT_init</title>
<path fill="none" stroke="black" d="M224.783,-538.437C247.871,-533.185 277.595,-524.28 301,-510 312.412,-503.037 323.08,-492.894 331.606,-483.484"/>
<polygon fill="black" stroke="black" points="334.329,-485.686 338.234,-475.837 329.039,-481.101 334.329,-485.686"/>
<text text-anchor="middle" x="350" y="-498.3" font-family="Times,serif" font-size="14.00">workRight</text>
</g>
<!-- mainEdt&#45;&gt;RightEDT_init -->
<g id="edge7" class="edge"><title>mainEdt&#45;&gt;RightEDT_init</title>
<path fill="none" stroke="black" d="M228.208,-543.607C279.191,-540.896 362.796,-532.978 382,-510 388.886,-501.76 385.116,-491.833 378.189,-482.935"/>
<polygon fill="black" stroke="black" points="380.759,-480.559 371.477,-475.45 375.547,-485.232 380.759,-480.559"/>
<text text-anchor="middle" x="414.5" y="-498.3" font-family="Times,serif" font-size="14.00">doneRight</text>
</g>
<!-- LeftEDT_start -->
<g id="node5" class="node"><title>LeftEDT_start</title>
<ellipse fill="none" stroke="black" cx="116" cy="-370" rx="61.6163" ry="18"/>
<text text-anchor="middle" x="116" y="-366.3" font-family="Times,serif" font-size="14.00">LeftEDT_start</text>
</g>
<!-- LeftEDT_init&#45;&gt;LeftEDT_start -->
<g id="edge8" class="edge"><title>LeftEDT_init&#45;&gt;LeftEDT_start</title>
<path fill="none" stroke="black" d="M72.9892,-445.785C61.2544,-440.541 49.8889,-432.943 43,-422 33.7416,-407.293 46.6878,-395.669 64.1242,-387.256"/>
<polygon fill="black" stroke="black" points="65.7857,-390.35 73.5578,-383.149 62.9919,-383.931 65.7857,-390.35"/>
<text text-anchor="middle" x="68.5" y="-410.3" font-family="Times,serif" font-size="14.00">workLeft</text>
</g>
<!-- LeftEDT_init&#45;&gt;LeftEDT_start -->
<g id="edge9" class="edge"><title>LeftEDT_init&#45;&gt;LeftEDT_start</title>
<path fill="none" stroke="black" d="M116,-439.597C116,-427.746 116,-411.817 116,-398.292"/>
<polygon fill="black" stroke="black" points="119.5,-398.084 116,-388.084 112.5,-398.084 119.5,-398.084"/>
<text text-anchor="middle" x="152.5" y="-410.3" font-family="Times,serif" font-size="14.00">ReducPrivate</text>
</g>
<!-- LeftEDT_init&#45;&gt;LeftEDT_start -->
<g id="edge10" class="edge"><title>LeftEDT_init&#45;&gt;LeftEDT_start</title>
<path fill="none" stroke="black" d="M159.586,-445.912C171.481,-440.673 183.005,-433.046 190,-422 199.419,-407.126 186.159,-395.457 168.383,-387.056"/>
<polygon fill="black" stroke="black" points="169.344,-383.661 158.772,-382.961 166.6,-390.1 169.344,-383.661"/>
<text text-anchor="middle" x="218.5" y="-410.3" font-family="Times,serif" font-size="14.00">doneLeft</text>
</g>
<!-- RightEDT_start -->
<g id="node6" class="node"><title>RightEDT_start</title>
<ellipse fill="none" stroke="black" cx="380" cy="-370" rx="66.4165" ry="18"/>
<text text-anchor="middle" x="380" y="-366.3" font-family="Times,serif" font-size="14.00">RightEDT_start</text>
</g>
<!-- RightEDT_init&#45;&gt;RightEDT_start -->
<g id="edge11" class="edge"><title>RightEDT_init&#45;&gt;RightEDT_start</title>
<path fill="none" stroke="black" d="M311.851,-443.731C291.956,-434.749 274.067,-421.679 285,-406 292.139,-395.761 302.628,-388.509 314.059,-383.376"/>
<polygon fill="black" stroke="black" points="315.366,-386.623 323.382,-379.696 312.796,-380.112 315.366,-386.623"/>
<text text-anchor="middle" x="321.5" y="-410.3" font-family="Times,serif" font-size="14.00">ReducPrivate</text>
</g>
<!-- RightEDT_init&#45;&gt;RightEDT_start -->
<g id="edge12" class="edge"><title>RightEDT_init&#45;&gt;RightEDT_start</title>
<path fill="none" stroke="black" d="M356.729,-440.009C360.821,-427.877 366.404,-411.32 371.076,-397.465"/>
<polygon fill="black" stroke="black" points="374.404,-398.55 374.282,-387.956 367.771,-396.313 374.404,-398.55"/>
<text text-anchor="middle" x="398" y="-410.3" font-family="Times,serif" font-size="14.00">workRight</text>
</g>
<!-- RightEDT_init&#45;&gt;RightEDT_start -->
<g id="edge13" class="edge"><title>RightEDT_init&#45;&gt;RightEDT_start</title>
<path fill="none" stroke="black" d="M399.287,-446.165C411.696,-440.963 423.615,-433.292 431,-422 438.17,-411.038 430.964,-400.518 419.934,-391.911"/>
<polygon fill="black" stroke="black" points="421.595,-388.804 411.378,-386.002 417.617,-394.564 421.595,-388.804"/>
<text text-anchor="middle" x="461.5" y="-410.3" font-family="Times,serif" font-size="14.00">doneRight</text>
</g>
<!-- LeftEDT_stop -->
<g id="node7" class="node"><title>LeftEDT_stop</title>
<ellipse fill="none" stroke="black" cx="126" cy="-282" rx="61.6163" ry="18"/>
<text text-anchor="middle" x="126" y="-278.3" font-family="Times,serif" font-size="14.00">LeftEDT_stop</text>
</g>
<!-- LeftEDT_start&#45;&gt;LeftEDT_stop -->
<g id="edge14" class="edge"><title>LeftEDT_start&#45;&gt;LeftEDT_stop</title>
<path fill="none" stroke="black" d="M73.7638,-356.859C51.7785,-348.229 31.6308,-335.133 43,-318 49.0244,-308.921 57.9174,-302.192 67.6713,-297.205"/>
<polygon fill="black" stroke="black" points="69.1258,-300.389 76.8134,-293.099 66.2573,-294.004 69.1258,-300.389"/>
<text text-anchor="middle" x="68.5" y="-322.3" font-family="Times,serif" font-size="14.00">workLeft</text>
</g>
<!-- LeftEDT_start&#45;&gt;LeftEDT_stop -->
<g id="edge15" class="edge"><title>LeftEDT_start&#45;&gt;LeftEDT_stop</title>
<path fill="none" stroke="black" d="M115.35,-351.924C115.217,-341.981 115.467,-329.231 117,-318 117.349,-315.443 117.818,-312.805 118.36,-310.177"/>
<polygon fill="black" stroke="black" points="121.803,-310.827 120.707,-300.289 114.992,-309.21 121.803,-310.827"/>
<text text-anchor="middle" x="153.5" y="-322.3" font-family="Times,serif" font-size="14.00">ReducPrivate</text>
</g>
<!-- LeftEDT_start&#45;&gt;LeftEDT_stop -->
<g id="edge16" class="edge"><title>LeftEDT_start&#45;&gt;LeftEDT_stop</title>
<path fill="none" stroke="black" d="M160.748,-357.392C172.227,-352.172 183.233,-344.686 190,-334 198.324,-320.855 187.815,-309.624 173.063,-301.075"/>
<polygon fill="black" stroke="black" points="174.484,-297.869 163.997,-296.357 171.252,-304.078 174.484,-297.869"/>
<text text-anchor="middle" x="217.5" y="-322.3" font-family="Times,serif" font-size="14.00">doneLeft</text>
</g>
<!-- RightEDT_stop -->
<g id="node8" class="node"><title>RightEDT_stop</title>
<ellipse fill="none" stroke="black" cx="380" cy="-282" rx="65.9423" ry="18"/>
<text text-anchor="middle" x="380" y="-278.3" font-family="Times,serif" font-size="14.00">RightEDT_stop</text>
</g>
<!-- RightEDT_start&#45;&gt;RightEDT_stop -->
<g id="edge17" class="edge"><title>RightEDT_start&#45;&gt;RightEDT_stop</title>
<path fill="none" stroke="black" d="M323.382,-360.304C308.476,-355.154 294.048,-346.976 285,-334 272.231,-315.687 291.978,-303.368 316.716,-295.433"/>
<polygon fill="black" stroke="black" points="317.769,-298.771 326.384,-292.603 315.803,-292.053 317.769,-298.771"/>
<text text-anchor="middle" x="321.5" y="-322.3" font-family="Times,serif" font-size="14.00">ReducPrivate</text>
</g>
<!-- RightEDT_start&#45;&gt;RightEDT_stop -->
<g id="edge18" class="edge"><title>RightEDT_start&#45;&gt;RightEDT_stop</title>
<path fill="none" stroke="black" d="M380,-351.597C380,-339.746 380,-323.817 380,-310.292"/>
<polygon fill="black" stroke="black" points="383.5,-310.084 380,-300.084 376.5,-310.084 383.5,-310.084"/>
<text text-anchor="middle" x="409" y="-322.3" font-family="Times,serif" font-size="14.00">workRight</text>
</g>
<!-- RightEDT_start&#45;&gt;RightEDT_stop -->
<g id="edge19" class="edge"><title>RightEDT_start&#45;&gt;RightEDT_stop</title>
<path fill="none" stroke="black" d="M416.793,-354.97C425.61,-349.771 433.931,-342.9 439,-334 446.035,-321.646 437.374,-310.847 424.709,-302.405"/>
<polygon fill="black" stroke="black" points="426.32,-299.291 415.932,-297.205 422.752,-305.314 426.32,-299.291"/>
<text text-anchor="middle" x="469.5" y="-322.3" font-family="Times,serif" font-size="14.00">doneRight</text>
</g>
<!-- LeftEDT_start2 -->
<g id="node9" class="node"><title>LeftEDT_start2</title>
<ellipse fill="none" stroke="black" cx="116" cy="-194" rx="65.9423" ry="18"/>
<text text-anchor="middle" x="116" y="-190.3" font-family="Times,serif" font-size="14.00">LeftEDT_start2</text>
</g>
<!-- LeftEDT_stop&#45;&gt;LeftEDT_start2 -->
<g id="edge20" class="edge"><title>LeftEDT_stop&#45;&gt;LeftEDT_start2</title>
<path fill="none" stroke="black" d="M76.8134,-270.901C63.6309,-265.708 50.8687,-257.858 43,-246 33.5368,-231.739 45.909,-220.275 63.0014,-211.856"/>
<polygon fill="black" stroke="black" points="64.5629,-214.992 72.2793,-207.732 61.7197,-208.595 64.5629,-214.992"/>
<text text-anchor="middle" x="68.5" y="-234.3" font-family="Times,serif" font-size="14.00">workLeft</text>
</g>
<!-- LeftEDT_stop&#45;&gt;LeftEDT_start2 -->
<g id="edge21" class="edge"><title>LeftEDT_stop&#45;&gt;LeftEDT_start2</title>
<path fill="none" stroke="black" d="M120.707,-263.711C119.223,-258.115 117.798,-251.843 117,-246 115.946,-238.278 115.499,-229.839 115.365,-222.088"/>
<polygon fill="black" stroke="black" points="118.865,-222.071 115.35,-212.076 111.865,-222.082 118.865,-222.071"/>
<text text-anchor="middle" x="153.5" y="-234.3" font-family="Times,serif" font-size="14.00">ReducPrivate</text>
</g>
<!-- LeftEDT_stop&#45;&gt;LeftEDT_start2 -->
<g id="edge22" class="edge"><title>LeftEDT_stop&#45;&gt;LeftEDT_start2</title>
<path fill="none" stroke="black" d="M163.997,-267.643C182.965,-258.71 199.957,-245.724 190,-230 185.3,-222.578 178.556,-216.7 171.028,-212.053"/>
<polygon fill="black" stroke="black" points="172.371,-208.801 161.907,-207.144 169.054,-214.965 172.371,-208.801"/>
<text text-anchor="middle" x="217.5" y="-234.3" font-family="Times,serif" font-size="14.00">doneLeft</text>
</g>
<!-- RightEDT_start2 -->
<g id="node10" class="node"><title>RightEDT_start2</title>
<ellipse fill="none" stroke="black" cx="380" cy="-194" rx="71.2405" ry="18"/>
<text text-anchor="middle" x="380" y="-190.3" font-family="Times,serif" font-size="14.00">RightEDT_start2</text>
</g>
<!-- RightEDT_stop&#45;&gt;RightEDT_start2 -->
<g id="edge23" class="edge"><title>RightEDT_stop&#45;&gt;RightEDT_start2</title>
<path fill="none" stroke="black" d="M323.382,-272.304C308.476,-267.154 294.048,-258.976 285,-246 272.618,-228.242 290.81,-216.12 314.48,-208.167"/>
<polygon fill="black" stroke="black" points="315.597,-211.485 324.137,-205.216 313.551,-204.791 315.597,-211.485"/>
<text text-anchor="middle" x="321.5" y="-234.3" font-family="Times,serif" font-size="14.00">ReducPrivate</text>
</g>
<!-- RightEDT_stop&#45;&gt;RightEDT_start2 -->
<g id="edge24" class="edge"><title>RightEDT_stop&#45;&gt;RightEDT_start2</title>
<path fill="none" stroke="black" d="M380,-263.597C380,-251.746 380,-235.817 380,-222.292"/>
<polygon fill="black" stroke="black" points="383.5,-222.084 380,-212.084 376.5,-222.084 383.5,-222.084"/>
<text text-anchor="middle" x="409" y="-234.3" font-family="Times,serif" font-size="14.00">workRight</text>
</g>
<!-- RightEDT_stop&#45;&gt;RightEDT_start2 -->
<g id="edge25" class="edge"><title>RightEDT_stop&#45;&gt;RightEDT_start2</title>
<path fill="none" stroke="black" d="M416.793,-266.97C425.61,-261.771 433.931,-254.9 439,-246 445.925,-233.839 437.641,-223.185 425.299,-214.803"/>
<polygon fill="black" stroke="black" points="427.093,-211.797 416.723,-209.629 423.478,-217.791 427.093,-211.797"/>
<text text-anchor="middle" x="469.5" y="-234.3" font-family="Times,serif" font-size="14.00">doneRight</text>
</g>
<!-- LeftEDT_stop2 -->
<g id="node11" class="node"><title>LeftEDT_stop2</title>
<ellipse fill="none" stroke="black" cx="116" cy="-106" rx="65.4659" ry="18"/>
<text text-anchor="middle" x="116" y="-102.3" font-family="Times,serif" font-size="14.00">LeftEDT_stop2</text>
</g>
<!-- LeftEDT_start2&#45;&gt;LeftEDT_stop2 -->
<g id="edge26" class="edge"><title>LeftEDT_start2&#45;&gt;LeftEDT_stop2</title>
<path fill="none" stroke="black" d="M70.6991,-180.728C59.791,-175.535 49.4397,-168.229 43,-158 33.8818,-143.516 46.3006,-132.022 63.3348,-123.64"/>
<polygon fill="black" stroke="black" points="64.8522,-126.796 72.5737,-119.542 62.0135,-120.398 64.8522,-126.796"/>
<text text-anchor="middle" x="68.5" y="-146.3" font-family="Times,serif" font-size="14.00">workLeft</text>
</g>
<!-- LeftEDT_start2&#45;&gt;LeftEDT_stop2 -->
<g id="edge27" class="edge"><title>LeftEDT_start2&#45;&gt;LeftEDT_stop2</title>
<path fill="none" stroke="black" d="M116,-175.597C116,-163.746 116,-147.817 116,-134.292"/>
<polygon fill="black" stroke="black" points="119.5,-134.084 116,-124.084 112.5,-134.084 119.5,-134.084"/>
<text text-anchor="middle" x="152.5" y="-146.3" font-family="Times,serif" font-size="14.00">ReducPrivate</text>
</g>
<!-- LeftEDT_start2&#45;&gt;LeftEDT_stop2 -->
<g id="edge28" class="edge"><title>LeftEDT_start2&#45;&gt;LeftEDT_stop2</title>
<path fill="none" stroke="black" d="M160.019,-180.552C181.599,-172.021 200.852,-159.137 190,-142 185.246,-134.492 178.399,-128.564 170.765,-123.891"/>
<polygon fill="black" stroke="black" points="171.992,-120.579 161.521,-118.963 168.699,-126.756 171.992,-120.579"/>
<text text-anchor="middle" x="218.5" y="-146.3" font-family="Times,serif" font-size="14.00">doneLeft</text>
</g>
<!-- RightEDT_stop2 -->
<g id="node12" class="node"><title>RightEDT_stop2</title>
<ellipse fill="none" stroke="black" cx="332" cy="-106" rx="70.2668" ry="18"/>
<text text-anchor="middle" x="332" y="-102.3" font-family="Times,serif" font-size="14.00">RightEDT_stop2</text>
</g>
<!-- RightEDT_start2&#45;&gt;RightEDT_stop2 -->
<g id="edge29" class="edge"><title>RightEDT_start2&#45;&gt;RightEDT_stop2</title>
<path fill="none" stroke="black" d="M321.398,-183.599C307.204,-178.418 293.646,-170.399 285,-158 277.866,-147.768 284.202,-137.466 294.274,-128.826"/>
<polygon fill="black" stroke="black" points="296.68,-131.395 302.544,-122.571 292.457,-125.812 296.68,-131.395"/>
<text text-anchor="middle" x="321.5" y="-146.3" font-family="Times,serif" font-size="14.00">ReducPrivate</text>
</g>
<!-- RightEDT_start2&#45;&gt;RightEDT_stop2 -->
<g id="edge30" class="edge"><title>RightEDT_start2&#45;&gt;RightEDT_stop2</title>
<path fill="none" stroke="black" d="M373.809,-175.99C369.838,-165.841 364.262,-152.859 358,-142 356.112,-138.725 353.971,-135.397 351.748,-132.159"/>
<polygon fill="black" stroke="black" points="354.479,-129.963 345.788,-123.904 348.803,-134.06 354.479,-129.963"/>
<text text-anchor="middle" x="395" y="-146.3" font-family="Times,serif" font-size="14.00">workRight</text>
</g>
<!-- RightEDT_start2&#45;&gt;RightEDT_stop2 -->
<g id="edge31" class="edge"><title>RightEDT_start2&#45;&gt;RightEDT_stop2</title>
<path fill="none" stroke="black" d="M410.024,-177.509C424.543,-167.9 437.063,-154.951 428,-142 421.087,-132.121 411.077,-125.021 400.103,-119.92"/>
<polygon fill="black" stroke="black" points="401.286,-116.623 390.704,-116.088 398.643,-123.105 401.286,-116.623"/>
<text text-anchor="middle" x="459.5" y="-146.3" font-family="Times,serif" font-size="14.00">doneRight</text>
</g>
<!-- LeftEDT_stop2&#45;&gt;finalEDT -->
<g id="edge32" class="edge"><title>LeftEDT_stop2&#45;&gt;finalEDT</title>
<path fill="none" stroke="black" d="M116,-87.5966C116,-75.7459 116,-59.8169 116,-46.2917"/>
<polygon fill="black" stroke="black" points="119.5,-46.084 116,-36.084 112.5,-46.084 119.5,-46.084"/>
<text text-anchor="middle" x="124.5" y="-58.3" font-family="Times,serif" font-size="14.00">0G</text>
</g>
<!-- RightEDT_stop2&#45;&gt;finalEDT -->
<g id="edge33" class="edge"><title>RightEDT_stop2&#45;&gt;finalEDT</title>
<path fill="none" stroke="black" d="M295.359,-90.4113C256.663,-75.0047 195.845,-50.7903 155.944,-34.9037"/>
<polygon fill="black" stroke="black" points="157.11,-31.6009 146.525,-31.1535 154.521,-38.1044 157.11,-31.6009"/>
<text text-anchor="middle" x="252.5" y="-58.3" font-family="Times,serif" font-size="14.00">0G</text>
</g>
</g>
</svg>
