<?xml version="1.0" encoding="UTF-8" standalone="no"?>
<!DOCTYPE svg PUBLIC "-//W3C//DTD SVG 1.1//EN"
 "http://www.w3.org/Graphics/SVG/1.1/DTD/svg11.dtd">
<!-- Generated by graphviz version 2.30.1 (20141125.1714)
 -->
<!-- Title: mpiRanks_inOcr Pages: 1 -->
<svg width="976pt" height="1188pt"
 viewBox="0.00 0.00 976.00 1188.00" xmlns="http://www.w3.org/2000/svg" xmlns:xlink="http://www.w3.org/1999/xlink">
<g id="graph0" class="graph" transform="scale(1 1) rotate(0) translate(4 1184)">
<title>mpiRanks_inOcr</title>
<polygon fill="white" stroke="white" points="-4,5 -4,-1184 973,-1184 973,5 -4,5"/>
<!-- mainEdt -->
<g id="node1" class="node"><title>mainEdt</title>
<ellipse fill="none" stroke="black" cx="61" cy="-1162" rx="40.4202" ry="18"/>
<text text-anchor="middle" x="61" y="-1158.3" font-family="Times,serif" font-size="14.00">mainEdt</text>
</g>
<!-- finalEDT -->
<g id="node2" class="node"><title>finalEDT</title>
<ellipse fill="none" stroke="black" cx="44" cy="-18" rx="44.2946" ry="18"/>
<text text-anchor="middle" x="44" y="-14.3" font-family="Times,serif" font-size="14.00">finalEDT</text>
</g>
<!-- mainEdt&#45;&gt;finalEDT -->
<g id="edge1" class="edge"><title>mainEdt&#45;&gt;finalEDT</title>
<path fill="none" stroke="black" d="M43.6168,-1145.39C27.8309,-1129.42 7,-1103.03 7,-1075 7,-1075 7,-1075 7,-105 7,-83.1946 17.1612,-60.6255 26.8336,-44.0814"/>
<polygon fill="black" stroke="black" points="29.8224,-45.9028 32.0893,-35.5533 23.8632,-42.2302 29.8224,-45.9028"/>
<text text-anchor="middle" x="15.5" y="-586.3" font-family="Times,serif" font-size="14.00">0G</text>
</g>
<!-- SetupBtForkJoin -->
<g id="node3" class="node"><title>SetupBtForkJoin</title>
<ellipse fill="none" stroke="black" cx="131" cy="-1074" rx="70.2909" ry="18"/>
<text text-anchor="middle" x="131" y="-1070.3" font-family="Times,serif" font-size="14.00">SetupBtForkJoin</text>
</g>
<!-- mainEdt&#45;&gt;SetupBtForkJoin -->
<g id="edge2" class="edge"><title>mainEdt&#45;&gt;SetupBtForkJoin</title>
<path fill="none" stroke="black" d="M57.1026,-1143.66C55.7141,-1133.15 55.7857,-1119.9 62,-1110 66.2174,-1103.28 72.1615,-1097.8 78.8111,-1093.34"/>
<polygon fill="black" stroke="black" points="80.6783,-1096.3 87.5344,-1088.23 77.1376,-1090.26 80.6783,-1096.3"/>
<text text-anchor="middle" x="85.5" y="-1114.3" font-family="Times,serif" font-size="14.00">GlobalD</text>
</g>
<!-- mainEdt&#45;&gt;SetupBtForkJoin -->
<g id="edge3" class="edge"><title>mainEdt&#45;&gt;SetupBtForkJoin</title>
<path fill="none" stroke="black" d="M85.0841,-1147.16C93.4807,-1141.45 102.434,-1134.22 109,-1126 114.71,-1118.85 119.209,-1110 122.611,-1101.68"/>
<polygon fill="black" stroke="black" points="125.893,-1102.9 126.107,-1092.31 119.334,-1100.45 125.893,-1102.9"/>
<text text-anchor="middle" x="137.5" y="-1114.3" font-family="Times,serif" font-size="14.00">gDone</text>
</g>
<!-- ConcludeBtForkJoin -->
<g id="node4" class="node"><title>ConcludeBtForkJoin</title>
<ellipse fill="none" stroke="black" cx="125" cy="-106" rx="83.2649" ry="18"/>
<text text-anchor="middle" x="125" y="-102.3" font-family="Times,serif" font-size="14.00">ConcludeBtForkJoin</text>
</g>
<!-- SetupBtForkJoin&#45;&gt;ConcludeBtForkJoin -->
<g id="edge4" class="edge"><title>SetupBtForkJoin&#45;&gt;ConcludeBtForkJoin</title>
<path fill="none" stroke="black" d="M100.674,-1057.66C76.6133,-1043.09 47,-1018.72 47,-987 47,-987 47,-987 47,-193 47,-166.249 67.963,-144.121 88.1539,-129.013"/>
<polygon fill="black" stroke="black" points="90.2606,-131.81 96.3986,-123.174 86.215,-126.097 90.2606,-131.81"/>
<text text-anchor="middle" x="77.5" y="-586.3" font-family="Times,serif" font-size="14.00">RefTCsum</text>
</g>
<!-- SetupBtForkJoin&#45;&gt;ConcludeBtForkJoin -->
<g id="edge5" class="edge"><title>SetupBtForkJoin&#45;&gt;ConcludeBtForkJoin</title>
<path fill="none" stroke="black" d="M131,-1055.87C131,-1038.51 131,-1010.89 131,-987 131,-987 131,-987 131,-193 131,-173.356 129.423,-151.249 127.886,-134.368"/>
<polygon fill="black" stroke="black" points="131.34,-133.727 126.898,-124.108 124.373,-134.398 131.34,-133.727"/>
<text text-anchor="middle" x="149.5" y="-586.3" font-family="Times,serif" font-size="14.00">gDone</text>
</g>
<!-- BtForkIF -->
<g id="node5" class="node"><title>BtForkIF</title>
<ellipse fill="none" stroke="black" cx="282" cy="-986" rx="43.319" ry="18"/>
<text text-anchor="middle" x="282" y="-982.3" font-family="Times,serif" font-size="14.00">BtForkIF</text>
</g>
<!-- SetupBtForkJoin&#45;&gt;BtForkIF -->
<g id="edge6" class="edge"><title>SetupBtForkJoin&#45;&gt;BtForkIF</title>
<path fill="none" stroke="black" stroke-dasharray="5,2" d="M150.344,-1056.48C163.492,-1045.76 181.596,-1031.99 199,-1022 211.986,-1014.54 226.87,-1007.77 240.416,-1002.21"/>
<polygon fill="black" stroke="black" points="242.007,-1005.34 249.996,-998.38 239.411,-998.839 242.007,-1005.34"/>
<text text-anchor="middle" x="226.5" y="-1026.3" font-family="Times,serif" font-size="14.00">TFJiterate</text>
</g>
<!-- SetupBtForkJoin&#45;&gt;BtForkIF -->
<g id="edge7" class="edge"><title>SetupBtForkJoin&#45;&gt;BtForkIF</title>
<path fill="none" stroke="black" stroke-dasharray="5,2" d="M192.701,-1065.34C213.847,-1060.29 236.552,-1051.91 254,-1038 262.005,-1031.62 268.06,-1022.3 272.454,-1013.36"/>
<polygon fill="black" stroke="black" points="275.76,-1014.54 276.585,-1003.98 269.353,-1011.72 275.76,-1014.54"/>
<text text-anchor="middle" x="291.5" y="-1026.3" font-family="Times,serif" font-size="14.00">GlobalD</text>
</g>
<!-- ConcludeBtForkJoin&#45;&gt;finalEDT -->
<g id="edge8" class="edge"><title>ConcludeBtForkJoin&#45;&gt;finalEDT</title>
<path fill="none" stroke="black" d="M108.997,-88.0092C96.782,-75.0402 79.8048,-57.015 66.2646,-42.6389"/>
<polygon fill="black" stroke="black" points="68.552,-39.9628 59.1479,-35.0829 63.4564,-44.7622 68.552,-39.9628"/>
<text text-anchor="middle" x="100.5" y="-58.3" font-family="Times,serif" font-size="14.00">0G</text>
</g>
<!-- BtJoinIFTHEN -->
<g id="node10" class="node"><title>BtJoinIFTHEN</title>
<ellipse fill="none" stroke="black" cx="245" cy="-282" rx="64.4914" ry="18"/>
<text text-anchor="middle" x="245" y="-278.3" font-family="Times,serif" font-size="14.00">BtJoinIFTHEN</text>
</g>
<!-- BtForkIF&#45;&gt;BtJoinIFTHEN -->
<g id="edge9" class="edge"><title>BtForkIF&#45;&gt;BtJoinIFTHEN</title>
<path fill="none" stroke="black" stroke-dasharray="1,5" d="M248.197,-974.612C234.193,-969.031 218.558,-960.991 207,-950 188.415,-932.326 180,-924.647 180,-899 180,-899 180,-899 180,-677 180,-619.207 183,-604.793 183,-547 183,-547 183,-547 183,-369 183,-344.483 199.786,-322.196 215.889,-306.456"/>
<polygon fill="black" stroke="black" points="218.693,-308.631 223.663,-299.274 213.943,-303.489 218.693,-308.631"/>
<text text-anchor="middle" x="200.5" y="-630.3" font-family="Times,serif" font-size="14.00">gDone</text>
</g>
<!-- BtForkFOR -->
<g id="node6" class="node"><title>BtForkFOR</title>
<ellipse fill="none" stroke="black" cx="304" cy="-898" rx="52.4675" ry="18"/>
<text text-anchor="middle" x="304" y="-894.3" font-family="Times,serif" font-size="14.00">BtForkFOR</text>
</g>
<!-- BtForkIF&#45;&gt;BtForkFOR -->
<g id="edge10" class="edge"><title>BtForkIF&#45;&gt;BtForkFOR</title>
<path fill="none" stroke="black" d="M247.92,-974.511C225.339,-965.677 201.919,-951.661 214,-934 221.921,-922.42 234.282,-914.671 247.332,-909.485"/>
<polygon fill="black" stroke="black" points="248.616,-912.745 256.903,-906.144 246.309,-906.136 248.616,-912.745"/>
<text text-anchor="middle" x="241.5" y="-938.3" font-family="Times,serif" font-size="14.00">TFJiterate</text>
</g>
<!-- BtForkIF&#45;&gt;BtForkFOR -->
<g id="edge11" class="edge"><title>BtForkIF&#45;&gt;BtForkFOR</title>
<path fill="none" stroke="black" d="M284.757,-967.866C286.509,-957.905 289.009,-945.155 292,-934 292.749,-931.208 293.605,-928.316 294.508,-925.446"/>
<polygon fill="black" stroke="black" points="297.832,-926.539 297.668,-915.946 291.19,-924.329 297.832,-926.539"/>
<text text-anchor="middle" x="315.5" y="-938.3" font-family="Times,serif" font-size="14.00">GlobalD</text>
</g>
<!-- BtForkELSE -->
<g id="node7" class="node"><title>BtForkELSE</title>
<ellipse fill="none" stroke="black" cx="437" cy="-898" rx="56.3173" ry="18"/>
<text text-anchor="middle" x="437" y="-894.3" font-family="Times,serif" font-size="14.00">BtForkELSE</text>
</g>
<!-- BtForkIF&#45;&gt;BtForkELSE -->
<g id="edge12" class="edge"><title>BtForkIF&#45;&gt;BtForkELSE</title>
<path fill="none" stroke="black" d="M324.558,-982.469C370.62,-978.736 439.699,-969.906 456,-950 462.042,-942.621 460.366,-933.132 456.119,-924.345"/>
<polygon fill="black" stroke="black" points="459.049,-922.422 450.977,-915.559 453.007,-925.957 459.049,-922.422"/>
<text text-anchor="middle" x="493.5" y="-938.3" font-family="Times,serif" font-size="14.00">ELSEclause</text>
</g>
<!-- BtForkFOR&#45;&gt;BtForkIF -->
<g id="edge13" class="edge"><title>BtForkFOR&#45;&gt;BtForkIF</title>
<path fill="none" stroke="black" stroke-dasharray="5,2" d="M325.551,-914.598C336.399,-924.457 345.921,-937.629 339,-950 334.974,-957.197 328.795,-963.094 321.968,-967.859"/>
<polygon fill="black" stroke="black" points="319.784,-965.093 313.086,-973.302 323.441,-971.061 319.784,-965.093"/>
<text text-anchor="middle" x="369.5" y="-938.3" font-family="Times,serif" font-size="14.00">TFJiterate</text>
</g>
<!-- BtForkFOR&#45;&gt;BtForkIF -->
<g id="edge14" class="edge"><title>BtForkFOR&#45;&gt;BtForkIF</title>
<path fill="none" stroke="black" stroke-dasharray="5,2" d="M345.711,-908.947C368.826,-915.395 394.235,-924.367 401,-934 405.087,-939.819 405.26,-944.306 401,-950 385.817,-970.292 359.444,-979.324 335.379,-983.16"/>
<polygon fill="black" stroke="black" points="334.699,-979.719 325.246,-984.503 335.619,-986.659 334.699,-979.719"/>
<text text-anchor="middle" x="428.5" y="-938.3" font-family="Times,serif" font-size="14.00">GlobalD</text>
</g>
<!-- BtForkELSE&#45;&gt;BtJoinIFTHEN -->
<g id="edge15" class="edge"><title>BtForkELSE&#45;&gt;BtJoinIFTHEN</title>
<path fill="none" stroke="black" stroke-dasharray="1,5" d="M392.951,-886.595C336.266,-871.899 245,-843.233 245,-811 245,-811 245,-811 245,-369 245,-349.404 245,-327.296 245,-310.402"/>
<polygon fill="black" stroke="black" points="248.5,-310.133 245,-300.133 241.5,-310.133 248.5,-310.133"/>
<text text-anchor="middle" x="263.5" y="-586.3" font-family="Times,serif" font-size="14.00">gDone</text>
</g>
<!-- BtForkTransition_Start -->
<g id="node8" class="node"><title>BtForkTransition_Start</title>
<ellipse fill="none" stroke="black" cx="367" cy="-810" rx="92.413" ry="18"/>
<text text-anchor="middle" x="367" y="-806.3" font-family="Times,serif" font-size="14.00">BtForkTransition_Start</text>
</g>
<!-- BtForkELSE&#45;&gt;BtForkTransition_Start -->
<g id="edge16" class="edge"><title>BtForkELSE&#45;&gt;BtForkTransition_Start</title>
<path fill="none" stroke="black" d="M394.191,-886.25C382.023,-881.003 370.147,-873.286 363,-862 358.59,-855.036 357.903,-846.418 358.82,-838.261"/>
<polygon fill="black" stroke="black" points="362.279,-838.807 360.679,-828.334 355.398,-837.519 362.279,-838.807"/>
<text text-anchor="middle" x="390.5" y="-850.3" font-family="Times,serif" font-size="14.00">TFJiterate</text>
</g>
<!-- BtForkELSE&#45;&gt;BtForkTransition_Start -->
<g id="edge17" class="edge"><title>BtForkELSE&#45;&gt;BtForkTransition_Start</title>
<path fill="none" stroke="black" d="M433.348,-879.614C430.488,-869.082 425.676,-855.83 418,-846 414.359,-841.337 409.923,-837.06 405.202,-833.219"/>
<polygon fill="black" stroke="black" points="407.193,-830.337 397.081,-827.175 403.013,-835.953 407.193,-830.337"/>
<text text-anchor="middle" x="450.5" y="-850.3" font-family="Times,serif" font-size="14.00">GlobalD</text>
</g>
<!-- BtForkTransition_Stop -->
<g id="node9" class="node"><title>BtForkTransition_Stop</title>
<ellipse fill="none" stroke="black" cx="365" cy="-370" rx="91.9385" ry="18"/>
<text text-anchor="middle" x="365" y="-366.3" font-family="Times,serif" font-size="14.00">BtForkTransition_Stop</text>
</g>
<!-- BtForkTransition_Start&#45;&gt;BtForkTransition_Stop -->
<g id="edge18" class="edge"><title>BtForkTransition_Start&#45;&gt;BtForkTransition_Stop</title>
<path fill="none" stroke="black" d="M354.014,-791.911C342.668,-775.253 328,-748.739 328,-723 328,-723 328,-723 328,-457 328,-435.332 338.034,-412.909 347.651,-396.394"/>
<polygon fill="black" stroke="black" points="350.636,-398.223 352.885,-387.869 344.67,-394.56 350.636,-398.223"/>
<text text-anchor="middle" x="355.5" y="-586.3" font-family="Times,serif" font-size="14.00">TFJiterate</text>
</g>
<!-- setupTailRecursion -->
<g id="node12" class="node"><title>setupTailRecursion</title>
<ellipse fill="none" stroke="black" cx="437" cy="-722" rx="78.9404" ry="18"/>
<text text-anchor="middle" x="437" y="-718.3" font-family="Times,serif" font-size="14.00">setupTailRecursion</text>
</g>
<!-- BtForkTransition_Start&#45;&gt;setupTailRecursion -->
<g id="edge19" class="edge"><title>BtForkTransition_Start&#45;&gt;setupTailRecursion</title>
<path fill="none" stroke="black" d="M363.103,-791.664C361.714,-781.151 361.786,-767.901 368,-758 371.927,-751.743 377.352,-746.558 383.449,-742.275"/>
<polygon fill="black" stroke="black" points="385.403,-745.183 392.103,-736.977 381.747,-739.213 385.403,-745.183"/>
<text text-anchor="middle" x="391.5" y="-762.3" font-family="Times,serif" font-size="14.00">GlobalD</text>
</g>
<!-- BtForkTransition_Start&#45;&gt;setupTailRecursion -->
<g id="edge20" class="edge"><title>BtForkTransition_Start&#45;&gt;setupTailRecursion</title>
<path fill="none" stroke="black" d="M394.565,-792.726C401.894,-787.443 409.336,-781.091 415,-774 420.71,-766.852 425.209,-757.997 428.611,-749.683"/>
<polygon fill="black" stroke="black" points="431.893,-750.898 432.107,-740.305 425.334,-748.453 431.893,-750.898"/>
<text text-anchor="middle" x="443.5" y="-762.3" font-family="Times,serif" font-size="14.00">gDone</text>
</g>
<!-- BtForkTransition_Stop&#45;&gt;BtJoinIFTHEN -->
<g id="edge21" class="edge"><title>BtForkTransition_Stop&#45;&gt;BtJoinIFTHEN</title>
<path fill="none" stroke="black" stroke-width="2" d="M325.338,-353.74C313.729,-348.37 301.378,-341.717 291,-334 281.037,-326.592 271.568,-316.773 263.84,-307.73"/>
<polygon fill="black" stroke="black" points="266.322,-305.237 257.268,-299.734 260.915,-309.682 266.322,-305.237"/>
<text text-anchor="middle" x="315" y="-322.3" font-family="Times,serif" font-size="14.00">TCsum2</text>
</g>
<!-- BtForkTransition_Stop&#45;&gt;BtJoinIFTHEN -->
<g id="edge22" class="edge"><title>BtForkTransition_Stop&#45;&gt;BtJoinIFTHEN</title>
<path fill="none" stroke="black" stroke-width="2" d="M359.869,-351.815C355.798,-340.824 349.091,-326.992 339,-318 328.951,-309.045 316.4,-302.307 303.775,-297.263"/>
<polygon fill="black" stroke="black" points="304.74,-293.889 294.146,-293.728 302.327,-300.46 304.74,-293.889"/>
<text text-anchor="middle" x="372.5" y="-322.3" font-family="Times,serif" font-size="14.00">TCsum</text>
</g>
<!-- BtJoinIFTHEN&#45;&gt;BtJoinIFTHEN -->
<g id="edge23" class="edge"><title>BtJoinIFTHEN&#45;&gt;BtJoinIFTHEN</title>
<path fill="none" stroke="black" stroke-width="2" d="M302.852,-290.104C316.722,-289.471 327,-286.77 327,-282 327,-278.497 321.457,-276.11 313.019,-274.838"/>
<polygon fill="black" stroke="black" points="313.132,-271.334 302.852,-273.896 312.486,-278.304 313.132,-271.334"/>
<text text-anchor="middle" x="347.5" y="-278.3" font-family="Times,serif" font-size="14.00">TCsum</text>
</g>
<!-- BtJoinELSE -->
<g id="node11" class="node"><title>BtJoinELSE</title>
<ellipse fill="none" stroke="black" cx="222" cy="-194" rx="54.3924" ry="18"/>
<text text-anchor="middle" x="222" y="-190.3" font-family="Times,serif" font-size="14.00">BtJoinELSE</text>
</g>
<!-- BtJoinIFTHEN&#45;&gt;BtJoinELSE -->
<g id="edge24" class="edge"><title>BtJoinIFTHEN&#45;&gt;BtJoinELSE</title>
<path fill="none" stroke="black" d="M240.456,-264.009C237.243,-251.995 232.869,-235.641 229.186,-221.869"/>
<polygon fill="black" stroke="black" points="232.499,-220.712 226.535,-211.956 225.737,-222.52 232.499,-220.712"/>
<text text-anchor="middle" x="269.5" y="-234.3" font-family="Times,serif" font-size="14.00">ELSEclause</text>
</g>
<!-- BtJoinELSE&#45;&gt;ConcludeBtForkJoin -->
<g id="edge25" class="edge"><title>BtJoinELSE&#45;&gt;ConcludeBtForkJoin</title>
<path fill="none" stroke="black" d="M203.755,-176.824C189.04,-163.778 168.139,-145.247 151.567,-130.554"/>
<polygon fill="black" stroke="black" points="153.629,-127.705 143.825,-123.69 148.985,-132.943 153.629,-127.705"/>
<text text-anchor="middle" x="203.5" y="-146.3" font-family="Times,serif" font-size="14.00">TCsum</text>
</g>
<!-- concludeTailRecursion -->
<g id="node17" class="node"><title>concludeTailRecursion</title>
<ellipse fill="none" stroke="black" cx="448" cy="-458" rx="91.9385" ry="18"/>
<text text-anchor="middle" x="448" y="-454.3" font-family="Times,serif" font-size="14.00">concludeTailRecursion</text>
</g>
<!-- setupTailRecursion&#45;&gt;concludeTailRecursion -->
<g id="edge26" class="edge"><title>setupTailRecursion&#45;&gt;concludeTailRecursion</title>
<path fill="none" stroke="black" d="M433.394,-703.835C426.838,-669.976 414.567,-592.288 425,-528 427.33,-513.641 432.221,-498.232 436.896,-485.626"/>
<polygon fill="black" stroke="black" points="440.202,-486.78 440.545,-476.191 433.673,-484.255 440.202,-486.78"/>
<text text-anchor="middle" x="440.5" y="-586.3" font-family="Times,serif" font-size="14.00">gDone</text>
</g>
<!-- tailRecursionIFThen -->
<g id="node13" class="node"><title>tailRecursionIFThen</title>
<ellipse fill="none" stroke="black" cx="603" cy="-634" rx="83.2892" ry="18"/>
<text text-anchor="middle" x="603" y="-630.3" font-family="Times,serif" font-size="14.00">tailRecursionIFThen</text>
</g>
<!-- setupTailRecursion&#45;&gt;tailRecursionIFThen -->
<g id="edge27" class="edge"><title>setupTailRecursion&#45;&gt;tailRecursionIFThen</title>
<path fill="none" stroke="red" stroke-dasharray="5,2" d="M447.097,-703.999C454.577,-692.798 465.747,-678.655 479,-670 493.795,-660.338 511.267,-653.307 528.355,-648.202"/>
<polygon fill="red" stroke="red" points="529.656,-651.473 538.348,-645.414 527.775,-644.73 529.656,-651.473"/>
<text text-anchor="middle" x="523.5" y="-674.3" font-family="Times,serif" font-size="14.00">TailRecurIterate</text>
</g>
<!-- setupTailRecursion&#45;&gt;tailRecursionIFThen -->
<g id="edge28" class="edge"><title>setupTailRecursion&#45;&gt;tailRecursionIFThen</title>
<path fill="none" stroke="red" stroke-dasharray="5,2" d="M504.586,-712.439C526.268,-707.31 549.448,-699.111 568,-686 577.077,-679.585 584.535,-670.021 590.2,-660.903"/>
<polygon fill="red" stroke="red" points="593.328,-662.484 595.26,-652.066 587.254,-659.005 593.328,-662.484"/>
<text text-anchor="middle" x="607.5" y="-674.3" font-family="Times,serif" font-size="14.00">GlobalD</text>
</g>
<!-- tailRecursionELSE -->
<g id="node14" class="node"><title>tailRecursionELSE</title>
<ellipse fill="none" stroke="black" cx="513" cy="-546" rx="78.4642" ry="18"/>
<text text-anchor="middle" x="513" y="-542.3" font-family="Times,serif" font-size="14.00">tailRecursionELSE</text>
</g>
<!-- tailRecursionIFThen&#45;&gt;tailRecursionELSE -->
<g id="edge29" class="edge"><title>tailRecursionIFThen&#45;&gt;tailRecursionELSE</title>
<path fill="none" stroke="black" d="M544.479,-621.186C532.548,-616.033 521.396,-608.631 514,-598 509.235,-591.151 507.842,-582.435 507.984,-574.154"/>
<polygon fill="black" stroke="black" points="511.481,-574.333 508.847,-564.071 504.507,-573.736 511.481,-574.333"/>
<text text-anchor="middle" x="547.5" y="-586.3" font-family="Times,serif" font-size="14.00">ELSEclause</text>
</g>
<!-- tailRecurTransitBEGIN -->
<g id="node15" class="node"><title>tailRecurTransitBEGIN</title>
<ellipse fill="none" stroke="black" cx="705" cy="-546" rx="94.338" ry="18"/>
<text text-anchor="middle" x="705" y="-542.3" font-family="Times,serif" font-size="14.00">tailRecurTransitBEGIN</text>
</g>
<!-- tailRecursionIFThen&#45;&gt;tailRecurTransitBEGIN -->
<g id="edge30" class="edge"><title>tailRecursionIFThen&#45;&gt;tailRecurTransitBEGIN</title>
<path fill="none" stroke="black" d="M598.712,-615.832C597.077,-605.123 597.024,-591.6 604,-582 609.932,-573.837 617.901,-567.563 626.773,-562.743"/>
<polygon fill="black" stroke="black" points="628.383,-565.853 635.905,-558.392 625.372,-559.534 628.383,-565.853"/>
<text text-anchor="middle" x="648.5" y="-586.3" font-family="Times,serif" font-size="14.00">TailRecurIterate</text>
</g>
<!-- tailRecursionIFThen&#45;&gt;tailRecurTransitBEGIN -->
<g id="edge31" class="edge"><title>tailRecursionIFThen&#45;&gt;tailRecurTransitBEGIN</title>
<path fill="none" stroke="black" d="M659.183,-620.663C671.811,-615.517 684.092,-608.249 693,-598 698.622,-591.532 701.731,-582.916 703.416,-574.611"/>
<polygon fill="black" stroke="black" points="706.919,-574.835 704.869,-564.44 699.989,-573.844 706.919,-574.835"/>
<text text-anchor="middle" x="725.5" y="-586.3" font-family="Times,serif" font-size="14.00">GlobalD</text>
</g>
<!-- tailRecursionELSE&#45;&gt;concludeTailRecursion -->
<g id="edge32" class="edge"><title>tailRecursionELSE&#45;&gt;concludeTailRecursion</title>
<path fill="none" stroke="black" d="M500.158,-528.009C490.721,-515.524 477.743,-498.352 467.093,-484.261"/>
<polygon fill="black" stroke="black" points="469.637,-481.823 460.815,-475.956 464.053,-486.044 469.637,-481.823"/>
<text text-anchor="middle" x="510.5" y="-498.3" font-family="Times,serif" font-size="14.00">GlobalD</text>
</g>
<!-- tailRecurTransitEND -->
<g id="node16" class="node"><title>tailRecurTransitEND</title>
<ellipse fill="none" stroke="black" cx="805" cy="-458" rx="85.19" ry="18"/>
<text text-anchor="middle" x="805" y="-454.3" font-family="Times,serif" font-size="14.00">tailRecurTransitEND</text>
</g>
<!-- tailRecurTransitBEGIN&#45;&gt;tailRecurTransitEND -->
<g id="edge33" class="edge"><title>tailRecurTransitBEGIN&#45;&gt;tailRecurTransitEND</title>
<path fill="none" stroke="black" d="M677.809,-528.628C664.778,-518.706 653.804,-505.738 663,-494 671.263,-483.453 696.847,-475.654 724.067,-470.129"/>
<polygon fill="black" stroke="black" points="724.979,-473.518 734.14,-468.196 723.659,-466.643 724.979,-473.518"/>
<text text-anchor="middle" x="707.5" y="-498.3" font-family="Times,serif" font-size="14.00">TailRecurIterate</text>
</g>
<!-- tailRecurTransitBEGIN&#45;&gt;tailRecurTransitEND -->
<g id="edge34" class="edge"><title>tailRecurTransitBEGIN&#45;&gt;tailRecurTransitEND</title>
<path fill="none" stroke="black" d="M728.398,-528.475C736.078,-522.816 744.55,-516.315 752,-510 761.893,-501.614 772.278,-491.855 781.208,-483.132"/>
<polygon fill="black" stroke="black" points="783.67,-485.62 788.324,-476.102 778.75,-480.64 783.67,-485.62"/>
<text text-anchor="middle" x="791.5" y="-498.3" font-family="Times,serif" font-size="14.00">GlobalD</text>
</g>
<!-- tailRecurTransitEND&#45;&gt;tailRecursionIFThen -->
<g id="edge35" class="edge"><title>tailRecurTransitEND&#45;&gt;tailRecursionIFThen</title>
<path fill="none" stroke="red" stroke-dasharray="5,2" d="M813.326,-476.052C815.64,-481.636 817.837,-487.959 819,-494 824.956,-524.925 826.016,-538.17 808,-564 781.991,-601.29 734.732,-618.741 692.14,-626.779"/>
<polygon fill="red" stroke="red" points="691.538,-623.331 682.285,-628.49 692.736,-630.228 691.538,-623.331"/>
<text text-anchor="middle" x="866.5" y="-542.3" font-family="Times,serif" font-size="14.00">TailRecurIterate</text>
</g>
<!-- tailRecurTransitEND&#45;&gt;tailRecursionIFThen -->
<g id="edge36" class="edge"><title>tailRecurTransitEND&#45;&gt;tailRecursionIFThen</title>
<path fill="none" stroke="red" stroke-dasharray="5,2" d="M842.685,-474.288C884.313,-493.42 942.107,-528.064 915,-564 888.262,-599.447 772.975,-617.543 690.33,-626.127"/>
<polygon fill="red" stroke="red" points="689.766,-622.666 680.168,-627.152 690.469,-629.631 689.766,-622.666"/>
<text text-anchor="middle" x="944.5" y="-542.3" font-family="Times,serif" font-size="14.00">GlobalD</text>
</g>
<!-- concludeTailRecursion&#45;&gt;BtForkTransition_Stop -->
<g id="edge37" class="edge"><title>concludeTailRecursion&#45;&gt;BtForkTransition_Stop</title>
<path fill="none" stroke="black" d="M431.602,-440.009C419.324,-427.288 402.352,-409.702 388.613,-395.467"/>
<polygon fill="black" stroke="black" points="390.827,-392.72 381.364,-387.956 385.79,-397.582 390.827,-392.72"/>
<text text-anchor="middle" x="437.5" y="-410.3" font-family="Times,serif" font-size="14.00">GlobalD</text>
</g>
</g>
</svg>
