<?xml version="1.0" encoding="UTF-8" standalone="no"?>
<!DOCTYPE svg PUBLIC "-//W3C//DTD SVG 1.1//EN"
 "http://www.w3.org/Graphics/SVG/1.1/DTD/svg11.dtd">
<!-- Generated by graphviz version 2.30.1 (20141125.1714)
 -->
<!-- Title: BinTree_ForkJoin Pages: 1 -->
<svg width="516pt" height="836pt"
 viewBox="0.00 0.00 516.00 836.00" xmlns="http://www.w3.org/2000/svg" xmlns:xlink="http://www.w3.org/1999/xlink">
<g id="graph0" class="graph" transform="scale(1 1) rotate(0) translate(4 832)">
<title>BinTree_ForkJoin</title>
<polygon fill="white" stroke="white" points="-4,5 -4,-832 513,-832 513,5 -4,5"/>
<!-- mainEdt -->
<g id="node1" class="node"><title>mainEdt</title>
<ellipse fill="none" stroke="black" cx="48" cy="-810" rx="40.4202" ry="18"/>
<text text-anchor="middle" x="48" y="-806.3" font-family="Times,serif" font-size="14.00">mainEdt</text>
</g>
<!-- finalEDT -->
<g id="node2" class="node"><title>finalEDT</title>
<ellipse fill="none" stroke="black" cx="44" cy="-18" rx="44.2946" ry="18"/>
<text text-anchor="middle" x="44" y="-14.3" font-family="Times,serif" font-size="14.00">finalEDT</text>
</g>
<!-- mainEdt&#45;&gt;finalEDT -->
<g id="edge1" class="edge"><title>mainEdt&#45;&gt;finalEDT</title>
<path fill="none" stroke="black" d="M35.1236,-792.592C23.4303,-776.016 8,-749.182 8,-723 8,-723 8,-723 8,-105 8,-83.4866 17.7043,-61.1301 27.0361,-44.6051"/>
<polygon fill="black" stroke="black" points="30.2912,-45.9803 32.4112,-35.5997 24.2805,-42.3926 30.2912,-45.9803"/>
<text text-anchor="middle" x="16.5" y="-410.3" font-family="Times,serif" font-size="14.00">0G</text>
</g>
<!-- SetupBtForkJoin -->
<g id="node3" class="node"><title>SetupBtForkJoin</title>
<ellipse fill="none" stroke="black" cx="114" cy="-722" rx="70.2909" ry="18"/>
<text text-anchor="middle" x="114" y="-718.3" font-family="Times,serif" font-size="14.00">SetupBtForkJoin</text>
</g>
<!-- mainEdt&#45;&gt;SetupBtForkJoin -->
<g id="edge2" class="edge"><title>mainEdt&#45;&gt;SetupBtForkJoin</title>
<path fill="none" stroke="black" d="M44.1884,-791.717C42.8321,-781.224 42.9076,-767.977 49,-758 52.8576,-751.683 58.2825,-746.435 64.3713,-742.095"/>
<polygon fill="black" stroke="black" points="66.3599,-744.98 73.0009,-736.725 62.6614,-739.037 66.3599,-744.98"/>
<text text-anchor="middle" x="70.5" y="-762.3" font-family="Times,serif" font-size="14.00">Globals</text>
</g>
<!-- mainEdt&#45;&gt;SetupBtForkJoin -->
<g id="edge3" class="edge"><title>mainEdt&#45;&gt;SetupBtForkJoin</title>
<path fill="none" stroke="black" d="M70.0435,-794.826C77.7367,-789.07 85.9506,-781.908 92,-774 97.4984,-766.813 101.922,-758.042 105.32,-749.814"/>
<polygon fill="black" stroke="black" points="108.696,-750.781 108.959,-740.189 102.148,-748.305 108.696,-750.781"/>
<text text-anchor="middle" x="120.5" y="-762.3" font-family="Times,serif" font-size="14.00">gDone</text>
</g>
<!-- ConcludeBtForkJoin -->
<g id="node4" class="node"><title>ConcludeBtForkJoin</title>
<ellipse fill="none" stroke="black" cx="120" cy="-106" rx="83.2649" ry="18"/>
<text text-anchor="middle" x="120" y="-102.3" font-family="Times,serif" font-size="14.00">ConcludeBtForkJoin</text>
</g>
<!-- SetupBtForkJoin&#45;&gt;ConcludeBtForkJoin -->
<g id="edge4" class="edge"><title>SetupBtForkJoin&#45;&gt;ConcludeBtForkJoin</title>
<path fill="none" stroke="black" d="M93.3514,-704.58C75.9955,-688.793 54,-663.218 54,-635 54,-635 54,-635 54,-193 54,-168.029 71.7285,-145.841 88.8089,-130.259"/>
<polygon fill="black" stroke="black" points="91.2642,-132.763 96.545,-123.578 86.689,-127.465 91.2642,-132.763"/>
<text text-anchor="middle" x="72.5" y="-410.3" font-family="Times,serif" font-size="14.00">gDone</text>
</g>
<!-- SetupBtForkJoin&#45;&gt;ConcludeBtForkJoin -->
<g id="edge5" class="edge"><title>SetupBtForkJoin&#45;&gt;ConcludeBtForkJoin</title>
<path fill="none" stroke="black" d="M114,-703.867C114,-686.51 114,-658.889 114,-635 114,-635 114,-635 114,-193 114,-173.356 115.577,-151.249 117.114,-134.368"/>
<polygon fill="black" stroke="black" points="120.627,-134.398 118.102,-124.108 113.66,-133.727 120.627,-134.398"/>
<text text-anchor="middle" x="140" y="-410.3" font-family="Times,serif" font-size="14.00">RefWork</text>
</g>
<!-- BtForkIF -->
<g id="node5" class="node"><title>BtForkIF</title>
<ellipse fill="none" stroke="black" cx="265" cy="-634" rx="43.319" ry="18"/>
<text text-anchor="middle" x="265" y="-630.3" font-family="Times,serif" font-size="14.00">BtForkIF</text>
</g>
<!-- SetupBtForkJoin&#45;&gt;BtForkIF -->
<g id="edge6" class="edge"><title>SetupBtForkJoin&#45;&gt;BtForkIF</title>
<path fill="none" stroke="black" stroke-dasharray="5,2" d="M133.344,-704.476C146.492,-693.763 164.596,-679.994 182,-670 194.986,-662.543 209.87,-655.767 223.416,-650.207"/>
<polygon fill="black" stroke="black" points="225.007,-653.34 232.996,-646.38 222.411,-646.839 225.007,-653.34"/>
<text text-anchor="middle" x="209.5" y="-674.3" font-family="Times,serif" font-size="14.00">TFJiterate</text>
</g>
<!-- SetupBtForkJoin&#45;&gt;BtForkIF -->
<g id="edge7" class="edge"><title>SetupBtForkJoin&#45;&gt;BtForkIF</title>
<path fill="none" stroke="black" stroke-dasharray="5,2" d="M175.701,-713.341C196.847,-708.29 219.552,-699.908 237,-686 245.005,-679.619 251.06,-670.298 255.454,-661.364"/>
<polygon fill="black" stroke="black" points="258.76,-662.543 259.585,-651.98 252.353,-659.723 258.76,-662.543"/>
<text text-anchor="middle" x="272.5" y="-674.3" font-family="Times,serif" font-size="14.00">Globals</text>
</g>
<!-- ConcludeBtForkJoin&#45;&gt;finalEDT -->
<g id="edge8" class="edge"><title>ConcludeBtForkJoin&#45;&gt;finalEDT</title>
<path fill="none" stroke="black" d="M104.985,-88.0092C93.5239,-75.0402 77.5946,-57.015 64.8902,-42.6389"/>
<polygon fill="black" stroke="black" points="67.4575,-40.2585 58.2128,-35.0829 62.2122,-44.894 67.4575,-40.2585"/>
<text text-anchor="middle" x="97.5" y="-58.3" font-family="Times,serif" font-size="14.00">0G</text>
</g>
<!-- BtJoinIFTHEN -->
<g id="node10" class="node"><title>BtJoinIFTHEN</title>
<ellipse fill="none" stroke="black" cx="235" cy="-282" rx="64.4914" ry="18"/>
<text text-anchor="middle" x="235" y="-278.3" font-family="Times,serif" font-size="14.00">BtJoinIFTHEN</text>
</g>
<!-- BtForkIF&#45;&gt;BtJoinIFTHEN -->
<g id="edge9" class="edge"><title>BtForkIF&#45;&gt;BtJoinIFTHEN</title>
<path fill="none" stroke="black" stroke-dasharray="1,5" d="M229.869,-623.408C217.247,-618.081 204.329,-610.015 197,-598 139.92,-504.424 194.536,-366 221.693,-308.987"/>
<polygon fill="black" stroke="black" points="224.87,-310.457 226.103,-299.934 218.577,-307.391 224.87,-310.457"/>
<text text-anchor="middle" x="196.5" y="-454.3" font-family="Times,serif" font-size="14.00">gDone</text>
</g>
<!-- BtForkFOR -->
<g id="node6" class="node"><title>BtForkFOR</title>
<ellipse fill="none" stroke="black" cx="294" cy="-546" rx="52.4675" ry="18"/>
<text text-anchor="middle" x="294" y="-542.3" font-family="Times,serif" font-size="14.00">BtForkFOR</text>
</g>
<!-- BtForkIF&#45;&gt;BtForkFOR -->
<g id="edge10" class="edge"><title>BtForkIF&#45;&gt;BtForkFOR</title>
<path fill="none" stroke="black" d="M233.322,-621.485C213.195,-612.297 192.855,-598.292 204,-582 211.921,-570.42 224.282,-562.671 237.332,-557.485"/>
<polygon fill="black" stroke="black" points="238.616,-560.745 246.903,-554.144 236.309,-554.136 238.616,-560.745"/>
<text text-anchor="middle" x="231.5" y="-586.3" font-family="Times,serif" font-size="14.00">TFJiterate</text>
</g>
<!-- BtForkIF&#45;&gt;BtForkFOR -->
<g id="edge11" class="edge"><title>BtForkIF&#45;&gt;BtForkFOR</title>
<path fill="none" stroke="black" d="M270.63,-615.988C273.924,-606.067 278.174,-593.317 282,-582 282.926,-579.262 283.897,-576.405 284.869,-573.555"/>
<polygon fill="black" stroke="black" points="288.185,-574.674 288.111,-564.08 281.562,-572.408 288.185,-574.674"/>
<text text-anchor="middle" x="303.5" y="-586.3" font-family="Times,serif" font-size="14.00">Globals</text>
</g>
<!-- BtForkELSE -->
<g id="node7" class="node"><title>BtForkELSE</title>
<ellipse fill="none" stroke="black" cx="427" cy="-546" rx="56.3173" ry="18"/>
<text text-anchor="middle" x="427" y="-542.3" font-family="Times,serif" font-size="14.00">BtForkELSE</text>
</g>
<!-- BtForkIF&#45;&gt;BtForkELSE -->
<g id="edge12" class="edge"><title>BtForkIF&#45;&gt;BtForkELSE</title>
<path fill="none" stroke="black" d="M307.484,-630.361C353.02,-626.542 420.949,-617.646 437,-598 442.641,-591.096 442.437,-581.923 440.061,-573.262"/>
<polygon fill="black" stroke="black" points="443.347,-572.058 436.65,-563.849 436.766,-574.443 443.347,-572.058"/>
<text text-anchor="middle" x="474.5" y="-586.3" font-family="Times,serif" font-size="14.00">ELSEclause</text>
</g>
<!-- BtForkFOR&#45;&gt;BtForkIF -->
<g id="edge13" class="edge"><title>BtForkFOR&#45;&gt;BtForkIF</title>
<path fill="none" stroke="black" stroke-dasharray="5,2" d="M313.568,-562.957C323.357,-572.951 331.812,-586.14 325,-598 320.597,-605.666 313.795,-611.812 306.329,-616.68"/>
<polygon fill="black" stroke="black" points="304.297,-613.81 297.364,-621.821 307.78,-619.882 304.297,-613.81"/>
<text text-anchor="middle" x="355.5" y="-586.3" font-family="Times,serif" font-size="14.00">TFJiterate</text>
</g>
<!-- BtForkFOR&#45;&gt;BtForkIF -->
<g id="edge14" class="edge"><title>BtForkFOR&#45;&gt;BtForkIF</title>
<path fill="none" stroke="black" stroke-dasharray="5,2" d="M334.772,-557.389C356.736,-563.898 380.618,-572.78 387,-582 391.047,-587.847 391.279,-592.321 387,-598 371.15,-619.036 343.504,-628.058 318.533,-631.7"/>
<polygon fill="black" stroke="black" points="317.913,-628.249 308.401,-632.915 318.747,-635.199 317.913,-628.249"/>
<text text-anchor="middle" x="411.5" y="-586.3" font-family="Times,serif" font-size="14.00">Globals</text>
</g>
<!-- BtForkELSE&#45;&gt;BtJoinIFTHEN -->
<g id="edge15" class="edge"><title>BtForkELSE&#45;&gt;BtJoinIFTHEN</title>
<path fill="none" stroke="black" stroke-dasharray="1,5" d="M386.779,-533.224C343.224,-519.639 277.831,-496.532 262,-476 224.45,-427.301 226.61,-350.465 231.021,-309.994"/>
<polygon fill="black" stroke="black" points="234.496,-310.412 232.231,-300.062 227.547,-309.566 234.496,-310.412"/>
<text text-anchor="middle" x="255.5" y="-410.3" font-family="Times,serif" font-size="14.00">gDone</text>
</g>
<!-- BtForkTransition_Start -->
<g id="node8" class="node"><title>BtForkTransition_Start</title>
<ellipse fill="none" stroke="black" cx="364" cy="-458" rx="92.413" ry="18"/>
<text text-anchor="middle" x="364" y="-454.3" font-family="Times,serif" font-size="14.00">BtForkTransition_Start</text>
</g>
<!-- BtForkELSE&#45;&gt;BtForkTransition_Start -->
<g id="edge16" class="edge"><title>BtForkELSE&#45;&gt;BtForkTransition_Start</title>
<path fill="none" stroke="black" d="M384.191,-534.25C372.023,-529.003 360.147,-521.286 353,-510 348.452,-502.819 348.717,-494.049 350.877,-485.821"/>
<polygon fill="black" stroke="black" points="354.246,-486.79 354.255,-476.195 347.641,-484.472 354.246,-486.79"/>
<text text-anchor="middle" x="380.5" y="-498.3" font-family="Times,serif" font-size="14.00">TFJiterate</text>
</g>
<!-- BtForkELSE&#45;&gt;BtForkTransition_Start -->
<g id="edge17" class="edge"><title>BtForkELSE&#45;&gt;BtForkTransition_Start</title>
<path fill="none" stroke="black" d="M423.101,-527.8C420.148,-517.338 415.325,-504.095 408,-494 404.926,-489.764 401.209,-485.766 397.253,-482.094"/>
<polygon fill="black" stroke="black" points="399.341,-479.274 389.459,-475.454 394.802,-484.603 399.341,-479.274"/>
<text text-anchor="middle" x="437.5" y="-498.3" font-family="Times,serif" font-size="14.00">Globals</text>
</g>
<!-- BtForkTransition_Stop -->
<g id="node9" class="node"><title>BtForkTransition_Stop</title>
<ellipse fill="none" stroke="black" cx="355" cy="-370" rx="91.9385" ry="18"/>
<text text-anchor="middle" x="355" y="-366.3" font-family="Times,serif" font-size="14.00">BtForkTransition_Stop</text>
</g>
<!-- BtForkTransition_Start&#45;&gt;BtForkTransition_Stop -->
<g id="edge18" class="edge"><title>BtForkTransition_Start&#45;&gt;BtForkTransition_Stop</title>
<path fill="none" stroke="black" d="M340.082,-440.541C334.402,-435.332 329.098,-429.064 326,-422 322.175,-413.277 325.014,-404.121 330.159,-396.013"/>
<polygon fill="black" stroke="black" points="332.967,-398.103 336.173,-388.005 327.37,-393.9 332.967,-398.103"/>
<text text-anchor="middle" x="353.5" y="-410.3" font-family="Times,serif" font-size="14.00">TFJiterate</text>
</g>
<!-- BtForkTransition_Start&#45;&gt;BtForkTransition_Stop -->
<g id="edge19" class="edge"><title>BtForkTransition_Start&#45;&gt;BtForkTransition_Stop</title>
<path fill="none" stroke="black" d="M375.314,-440.006C380.502,-430.092 384.752,-417.342 381,-406 379.897,-402.665 378.339,-399.389 376.528,-396.26"/>
<polygon fill="black" stroke="black" points="379.4,-394.258 370.92,-387.905 373.587,-398.159 379.4,-394.258"/>
<text text-anchor="middle" x="403.5" y="-410.3" font-family="Times,serif" font-size="14.00">Globals</text>
</g>
<!-- BtForkTransition_Stop&#45;&gt;BtJoinIFTHEN -->
<g id="edge20" class="edge"><title>BtForkTransition_Stop&#45;&gt;BtJoinIFTHEN</title>
<path fill="none" stroke="black" stroke-width="2" d="M319.577,-353.295C308.721,-347.826 297.01,-341.23 287,-334 276.269,-326.249 265.618,-316.309 256.777,-307.266"/>
<polygon fill="black" stroke="black" points="259.243,-304.78 249.814,-299.949 254.172,-309.606 259.243,-304.78"/>
<text text-anchor="middle" x="306.5" y="-322.3" font-family="Times,serif" font-size="14.00">Work2</text>
</g>
<!-- BtForkTransition_Stop&#45;&gt;BtJoinIFTHEN -->
<g id="edge21" class="edge"><title>BtForkTransition_Stop&#45;&gt;BtJoinIFTHEN</title>
<path fill="none" stroke="black" stroke-width="2" d="M348.78,-351.843C344.029,-340.863 336.501,-327.034 326,-318 316.179,-309.55 304.096,-303.025 291.982,-298.028"/>
<polygon fill="black" stroke="black" points="292.893,-294.63 282.302,-294.341 290.401,-301.171 292.893,-294.63"/>
<text text-anchor="middle" x="355" y="-322.3" font-family="Times,serif" font-size="14.00">Work</text>
</g>
<!-- BtJoinIFTHEN&#45;&gt;BtJoinIFTHEN -->
<g id="edge22" class="edge"><title>BtJoinIFTHEN&#45;&gt;BtJoinIFTHEN</title>
<path fill="none" stroke="black" stroke-width="2" d="M292.852,-290.104C306.722,-289.471 317,-286.77 317,-282 317,-278.497 311.457,-276.11 303.019,-274.838"/>
<polygon fill="black" stroke="black" points="303.132,-271.334 292.852,-273.896 302.486,-278.304 303.132,-271.334"/>
<text text-anchor="middle" x="333" y="-278.3" font-family="Times,serif" font-size="14.00">Work</text>
</g>
<!-- BtJoinELSE -->
<g id="node11" class="node"><title>BtJoinELSE</title>
<ellipse fill="none" stroke="black" cx="206" cy="-194" rx="54.3924" ry="18"/>
<text text-anchor="middle" x="206" y="-190.3" font-family="Times,serif" font-size="14.00">BtJoinELSE</text>
</g>
<!-- BtJoinIFTHEN&#45;&gt;BtJoinELSE -->
<g id="edge23" class="edge"><title>BtJoinIFTHEN&#45;&gt;BtJoinELSE</title>
<path fill="none" stroke="black" d="M229.271,-264.009C225.179,-251.877 219.596,-235.32 214.924,-221.465"/>
<polygon fill="black" stroke="black" points="218.229,-220.313 211.718,-211.956 211.596,-222.55 218.229,-220.313"/>
<text text-anchor="middle" x="257.5" y="-234.3" font-family="Times,serif" font-size="14.00">ELSEclause</text>
</g>
<!-- BtJoinELSE&#45;&gt;ConcludeBtForkJoin -->
<g id="edge24" class="edge"><title>BtJoinELSE&#45;&gt;ConcludeBtForkJoin</title>
<path fill="none" stroke="black" d="M189.418,-176.418C176.533,-163.533 158.481,-145.481 144.016,-131.016"/>
<polygon fill="black" stroke="black" points="146.37,-128.42 136.824,-123.824 141.42,-133.37 146.37,-128.42"/>
<text text-anchor="middle" x="187" y="-146.3" font-family="Times,serif" font-size="14.00">Work</text>
</g>
</g>
</svg>
