<?xml version="1.0" encoding="UTF-8" standalone="no"?>
<!DOCTYPE svg PUBLIC "-//W3C//DTD SVG 1.1//EN"
 "http://www.w3.org/Graphics/SVG/1.1/DTD/svg11.dtd">
<!-- Generated by graphviz version 2.30.1 (20141125.1714)
 -->
<!-- Title: BinTree_ForkJoin Pages: 1 -->
<svg width="998pt" height="1452pt"
 viewBox="0.00 0.00 998.00 1452.00" xmlns="http://www.w3.org/2000/svg" xmlns:xlink="http://www.w3.org/1999/xlink">
<g id="graph0" class="graph" transform="scale(1 1) rotate(0) translate(4 1448)">
<title>BinTree_ForkJoin</title>
<polygon fill="white" stroke="white" points="-4,5 -4,-1448 995,-1448 995,5 -4,5"/>
<!-- mainEdt -->
<g id="node1" class="node"><title>mainEdt</title>
<ellipse fill="none" stroke="black" cx="121" cy="-1426" rx="40.4202" ry="18"/>
<text text-anchor="middle" x="121" y="-1422.3" font-family="Times,serif" font-size="14.00">mainEdt</text>
</g>
<!-- finalEDT -->
<g id="node2" class="node"><title>finalEDT</title>
<ellipse fill="none" stroke="black" cx="46" cy="-18" rx="44.2946" ry="18"/>
<text text-anchor="middle" x="46" y="-14.3" font-family="Times,serif" font-size="14.00">finalEDT</text>
</g>
<!-- mainEdt&#45;&gt;finalEDT -->
<g id="edge1" class="edge"><title>mainEdt&#45;&gt;finalEDT</title>
<path fill="none" stroke="black" d="M86.6499,-1416.45C50.877,-1405.24 0,-1381.78 0,-1339 0,-1339 0,-1339 0,-105 0,-82.0741 12.8678,-59.3419 24.9919,-43.0118"/>
<polygon fill="black" stroke="black" points="27.7857,-45.121 31.1921,-35.0887 22.2729,-40.807 27.7857,-45.121"/>
<text text-anchor="middle" x="8.5" y="-718.3" font-family="Times,serif" font-size="14.00">0G</text>
</g>
<!-- SetupBtForkJoin -->
<g id="node3" class="node"><title>SetupBtForkJoin</title>
<ellipse fill="none" stroke="black" cx="187" cy="-1338" rx="70.2909" ry="18"/>
<text text-anchor="middle" x="187" y="-1334.3" font-family="Times,serif" font-size="14.00">SetupBtForkJoin</text>
</g>
<!-- mainEdt&#45;&gt;SetupBtForkJoin -->
<g id="edge2" class="edge"><title>mainEdt&#45;&gt;SetupBtForkJoin</title>
<path fill="none" stroke="black" d="M117.188,-1407.72C115.832,-1397.22 115.908,-1383.98 122,-1374 125.858,-1367.68 131.282,-1362.44 137.371,-1358.1"/>
<polygon fill="black" stroke="black" points="139.36,-1360.98 146.001,-1352.72 135.661,-1355.04 139.36,-1360.98"/>
<text text-anchor="middle" x="143.5" y="-1378.3" font-family="Times,serif" font-size="14.00">Globals</text>
</g>
<!-- mainEdt&#45;&gt;SetupBtForkJoin -->
<g id="edge3" class="edge"><title>mainEdt&#45;&gt;SetupBtForkJoin</title>
<path fill="none" stroke="black" d="M143.044,-1410.83C150.737,-1405.07 158.951,-1397.91 165,-1390 170.498,-1382.81 174.922,-1374.04 178.32,-1365.81"/>
<polygon fill="black" stroke="black" points="181.696,-1366.78 181.959,-1356.19 175.148,-1364.31 181.696,-1366.78"/>
<text text-anchor="middle" x="193.5" y="-1378.3" font-family="Times,serif" font-size="14.00">gDone</text>
</g>
<!-- ConcludeBtForkJoin -->
<g id="node4" class="node"><title>ConcludeBtForkJoin</title>
<ellipse fill="none" stroke="black" cx="151" cy="-106" rx="83.2649" ry="18"/>
<text text-anchor="middle" x="151" y="-102.3" font-family="Times,serif" font-size="14.00">ConcludeBtForkJoin</text>
</g>
<!-- SetupBtForkJoin&#45;&gt;ConcludeBtForkJoin -->
<g id="edge4" class="edge"><title>SetupBtForkJoin&#45;&gt;ConcludeBtForkJoin</title>
<path fill="none" stroke="black" d="M135.192,-1325.72C97.4845,-1314.11 53,-1291.77 53,-1251 53,-1251 53,-1251 53,-193 53,-163.032 79.2096,-141.06 104.52,-126.828"/>
<polygon fill="black" stroke="black" points="106.201,-129.898 113.391,-122.116 102.918,-123.716 106.201,-129.898"/>
<text text-anchor="middle" x="84" y="-718.3" font-family="Times,serif" font-size="14.00">GlobalsRef</text>
</g>
<!-- SetupBtForkJoin&#45;&gt;ConcludeBtForkJoin -->
<g id="edge5" class="edge"><title>SetupBtForkJoin&#45;&gt;ConcludeBtForkJoin</title>
<path fill="none" stroke="black" d="M175.212,-1320.08C164.713,-1303.34 151,-1276.57 151,-1251 151,-1251 151,-1251 151,-193 151,-173.404 151,-151.296 151,-134.402"/>
<polygon fill="black" stroke="black" points="154.5,-134.133 151,-124.133 147.5,-134.133 154.5,-134.133"/>
<text text-anchor="middle" x="169.5" y="-718.3" font-family="Times,serif" font-size="14.00">gDone</text>
</g>
<!-- SetupBtForkJoin&#45;&gt;ConcludeBtForkJoin -->
<g id="edge6" class="edge"><title>SetupBtForkJoin&#45;&gt;ConcludeBtForkJoin</title>
<path fill="none" stroke="black" d="M199.115,-1320.13C209.906,-1303.42 224,-1276.68 224,-1251 224,-1251 224,-1251 224,-193 224,-166.953 204.296,-144.758 185.362,-129.443"/>
<polygon fill="black" stroke="black" points="187.422,-126.612 177.355,-123.309 183.165,-132.169 187.422,-126.612"/>
<text text-anchor="middle" x="250" y="-718.3" font-family="Times,serif" font-size="14.00">RefWork</text>
</g>
<!-- BtForkIF -->
<g id="node5" class="node"><title>BtForkIF</title>
<ellipse fill="none" stroke="black" cx="399" cy="-1250" rx="43.319" ry="18"/>
<text text-anchor="middle" x="399" y="-1246.3" font-family="Times,serif" font-size="14.00">BtForkIF</text>
</g>
<!-- SetupBtForkJoin&#45;&gt;BtForkIF -->
<g id="edge7" class="edge"><title>SetupBtForkJoin&#45;&gt;BtForkIF</title>
<path fill="none" stroke="black" stroke-dasharray="5,2" d="M222.963,-1322.41C260.862,-1307.04 320.381,-1282.89 359.547,-1267"/>
<polygon fill="black" stroke="black" points="361.089,-1270.16 369.04,-1263.15 358.458,-1263.67 361.089,-1270.16"/>
<text text-anchor="middle" x="339.5" y="-1290.3" font-family="Times,serif" font-size="14.00">TFJiterate</text>
</g>
<!-- SetupBtForkJoin&#45;&gt;BtForkIF -->
<g id="edge8" class="edge"><title>SetupBtForkJoin&#45;&gt;BtForkIF</title>
<path fill="none" stroke="black" stroke-dasharray="5,2" d="M250.684,-1330.2C294.939,-1324.46 349.215,-1315.07 368,-1302 376.712,-1295.94 383.415,-1286.56 388.322,-1277.5"/>
<polygon fill="black" stroke="black" points="391.563,-1278.84 392.794,-1268.31 385.27,-1275.77 391.563,-1278.84"/>
<text text-anchor="middle" x="404.5" y="-1290.3" font-family="Times,serif" font-size="14.00">Globals</text>
</g>
<!-- ConcludeBtForkJoin&#45;&gt;finalEDT -->
<g id="edge9" class="edge"><title>ConcludeBtForkJoin&#45;&gt;finalEDT</title>
<path fill="none" stroke="black" d="M130.755,-88.4183C114.218,-74.8736 90.7094,-55.6191 72.6444,-40.823"/>
<polygon fill="black" stroke="black" points="74.726,-38.0038 64.7719,-34.3751 70.2905,-43.4192 74.726,-38.0038"/>
<text text-anchor="middle" x="116.5" y="-58.3" font-family="Times,serif" font-size="14.00">0G</text>
</g>
<!-- BtJoinIFTHEN -->
<g id="node10" class="node"><title>BtJoinIFTHEN</title>
<ellipse fill="none" stroke="black" cx="353" cy="-282" rx="64.4914" ry="18"/>
<text text-anchor="middle" x="353" y="-278.3" font-family="Times,serif" font-size="14.00">BtJoinIFTHEN</text>
</g>
<!-- BtForkIF&#45;&gt;BtJoinIFTHEN -->
<g id="edge10" class="edge"><title>BtForkIF&#45;&gt;BtJoinIFTHEN</title>
<path fill="none" stroke="black" stroke-dasharray="1,5" d="M366.282,-1237.96C353.21,-1232.33 338.744,-1224.44 328,-1214 309.605,-1196.13 301,-1188.65 301,-1163 301,-1163 301,-1163 301,-809 301,-751.207 304,-736.793 304,-679 304,-679 304,-679 304,-369 304,-346.026 317.364,-323.592 330.134,-307.401"/>
<polygon fill="black" stroke="black" points="332.976,-309.457 336.684,-299.533 327.596,-304.979 332.976,-309.457"/>
<text text-anchor="middle" x="320.5" y="-762.3" font-family="Times,serif" font-size="14.00">gDone</text>
</g>
<!-- BtForkFOR -->
<g id="node6" class="node"><title>BtForkFOR</title>
<ellipse fill="none" stroke="black" cx="440" cy="-1162" rx="52.4675" ry="18"/>
<text text-anchor="middle" x="440" y="-1158.3" font-family="Times,serif" font-size="14.00">BtForkFOR</text>
</g>
<!-- BtForkIF&#45;&gt;BtForkFOR -->
<g id="edge11" class="edge"><title>BtForkIF&#45;&gt;BtForkFOR</title>
<path fill="none" stroke="black" d="M366.544,-1237.98C345.086,-1228.85 322.954,-1214.71 335,-1198 345.519,-1183.41 362.388,-1174.8 379.555,-1169.77"/>
<polygon fill="black" stroke="black" points="380.827,-1173.05 389.652,-1167.19 379.097,-1166.27 380.827,-1173.05"/>
<text text-anchor="middle" x="362.5" y="-1202.3" font-family="Times,serif" font-size="14.00">TFJiterate</text>
</g>
<!-- BtForkIF&#45;&gt;BtForkFOR -->
<g id="edge12" class="edge"><title>BtForkIF&#45;&gt;BtForkFOR</title>
<path fill="none" stroke="black" d="M401.966,-1231.86C404.147,-1221.67 407.674,-1208.68 413,-1198 414.71,-1194.57 416.78,-1191.15 419.005,-1187.86"/>
<polygon fill="black" stroke="black" points="422.008,-1189.68 425.114,-1179.55 416.369,-1185.53 422.008,-1189.68"/>
<text text-anchor="middle" x="434.5" y="-1202.3" font-family="Times,serif" font-size="14.00">Globals</text>
</g>
<!-- BtForkELSE -->
<g id="node7" class="node"><title>BtForkELSE</title>
<ellipse fill="none" stroke="black" cx="581" cy="-1162" rx="56.3173" ry="18"/>
<text text-anchor="middle" x="581" y="-1158.3" font-family="Times,serif" font-size="14.00">BtForkELSE</text>
</g>
<!-- BtForkIF&#45;&gt;BtForkELSE -->
<g id="edge13" class="edge"><title>BtForkIF&#45;&gt;BtForkELSE</title>
<path fill="none" stroke="black" d="M441.013,-1245.49C485.31,-1240.92 551.123,-1231.38 569,-1214 575.305,-1207.87 578.56,-1199.09 580.168,-1190.55"/>
<polygon fill="black" stroke="black" points="583.666,-1190.78 581.408,-1180.43 576.718,-1189.93 583.666,-1190.78"/>
<text text-anchor="middle" x="612.5" y="-1202.3" font-family="Times,serif" font-size="14.00">ELSEclause</text>
</g>
<!-- BtForkFOR&#45;&gt;BtForkIF -->
<g id="edge14" class="edge"><title>BtForkFOR&#45;&gt;BtForkIF</title>
<path fill="none" stroke="black" stroke-dasharray="5,2" d="M451.834,-1179.78C457.54,-1190.08 461.98,-1203.31 456,-1214 451.974,-1221.2 445.795,-1227.09 438.968,-1231.86"/>
<polygon fill="black" stroke="black" points="436.784,-1229.09 430.086,-1237.3 440.441,-1235.06 436.784,-1229.09"/>
<text text-anchor="middle" x="486.5" y="-1202.3" font-family="Times,serif" font-size="14.00">TFJiterate</text>
</g>
<!-- BtForkFOR&#45;&gt;BtForkIF -->
<g id="edge15" class="edge"><title>BtForkFOR&#45;&gt;BtForkIF</title>
<path fill="none" stroke="black" stroke-dasharray="5,2" d="M480.815,-1173.39C506.26,-1181.93 531.764,-1195.6 518,-1214 502.817,-1234.29 476.444,-1243.32 452.379,-1247.16"/>
<polygon fill="black" stroke="black" points="451.699,-1243.72 442.246,-1248.5 452.619,-1250.66 451.699,-1243.72"/>
<text text-anchor="middle" x="543.5" y="-1202.3" font-family="Times,serif" font-size="14.00">Globals</text>
</g>
<!-- BtForkELSE&#45;&gt;BtJoinIFTHEN -->
<g id="edge16" class="edge"><title>BtForkELSE&#45;&gt;BtJoinIFTHEN</title>
<path fill="none" stroke="black" stroke-dasharray="1,5" d="M539.446,-1149.71C473.683,-1131.26 353,-1094.7 353,-1075 353,-1075 353,-1075 353,-369 353,-349.404 353,-327.296 353,-310.402"/>
<polygon fill="black" stroke="black" points="356.5,-310.133 353,-300.133 349.5,-310.133 356.5,-310.133"/>
<text text-anchor="middle" x="371.5" y="-718.3" font-family="Times,serif" font-size="14.00">gDone</text>
</g>
<!-- BtForkTransition_Start -->
<g id="node8" class="node"><title>BtForkTransition_Start</title>
<ellipse fill="none" stroke="black" cx="517" cy="-1074" rx="92.413" ry="18"/>
<text text-anchor="middle" x="517" y="-1070.3" font-family="Times,serif" font-size="14.00">BtForkTransition_Start</text>
</g>
<!-- BtForkELSE&#45;&gt;BtForkTransition_Start -->
<g id="edge17" class="edge"><title>BtForkELSE&#45;&gt;BtForkTransition_Start</title>
<path fill="none" stroke="black" d="M540.082,-1149.57C528.698,-1144.31 517.643,-1136.75 511,-1126 506.65,-1118.96 506.243,-1110.32 507.491,-1102.17"/>
<polygon fill="black" stroke="black" points="510.94,-1102.79 509.786,-1092.26 504.12,-1101.21 510.94,-1102.79"/>
<text text-anchor="middle" x="538.5" y="-1114.3" font-family="Times,serif" font-size="14.00">TFJiterate</text>
</g>
<!-- BtForkELSE&#45;&gt;BtForkTransition_Start -->
<g id="edge18" class="edge"><title>BtForkELSE&#45;&gt;BtForkTransition_Start</title>
<path fill="none" stroke="black" d="M578.822,-1143.68C576.829,-1133.18 573.062,-1119.93 566,-1110 562.743,-1105.42 558.693,-1101.22 554.328,-1097.45"/>
<polygon fill="black" stroke="black" points="556.264,-1094.52 546.231,-1091.11 551.952,-1100.03 556.264,-1094.52"/>
<text text-anchor="middle" x="595.5" y="-1114.3" font-family="Times,serif" font-size="14.00">Globals</text>
</g>
<!-- BtForkTransition_Stop -->
<g id="node9" class="node"><title>BtForkTransition_Stop</title>
<ellipse fill="none" stroke="black" cx="473" cy="-370" rx="91.9385" ry="18"/>
<text text-anchor="middle" x="473" y="-366.3" font-family="Times,serif" font-size="14.00">BtForkTransition_Stop</text>
</g>
<!-- BtForkTransition_Start&#45;&gt;BtForkTransition_Stop -->
<g id="edge19" class="edge"><title>BtForkTransition_Start&#45;&gt;BtForkTransition_Stop</title>
<path fill="none" stroke="black" d="M482.077,-1057.17C456.415,-1042.89 426,-1019.17 426,-987 426,-987 426,-987 426,-457 426,-434.397 438.656,-412.094 450.833,-395.867"/>
<polygon fill="black" stroke="black" points="453.626,-397.978 457.088,-387.965 448.137,-393.634 453.626,-397.978"/>
<text text-anchor="middle" x="453.5" y="-718.3" font-family="Times,serif" font-size="14.00">TFJiterate</text>
</g>
<!-- BtForkTransition_Start&#45;&gt;BtForkTransition_Stop -->
<g id="edge20" class="edge"><title>BtForkTransition_Start&#45;&gt;BtForkTransition_Stop</title>
<path fill="none" stroke="black" d="M517,-1055.87C517,-1038.51 517,-1010.89 517,-987 517,-987 517,-987 517,-457 517,-434.783 505.219,-412.532 493.848,-396.23"/>
<polygon fill="black" stroke="black" points="496.402,-393.796 487.651,-387.823 490.768,-397.949 496.402,-393.796"/>
<text text-anchor="middle" x="538.5" y="-718.3" font-family="Times,serif" font-size="14.00">Globals</text>
</g>
<!-- R2arySetup -->
<g id="node12" class="node"><title>R2arySetup</title>
<ellipse fill="none" stroke="black" cx="597" cy="-986" rx="51.4931" ry="18"/>
<text text-anchor="middle" x="597" y="-982.3" font-family="Times,serif" font-size="14.00">R2arySetup</text>
</g>
<!-- BtForkTransition_Start&#45;&gt;R2arySetup -->
<g id="edge21" class="edge"><title>BtForkTransition_Start&#45;&gt;R2arySetup</title>
<path fill="none" stroke="black" d="M532.805,-1056.01C544.793,-1043.12 561.424,-1025.24 574.754,-1010.91"/>
<polygon fill="black" stroke="black" points="577.522,-1013.08 581.77,-1003.37 572.396,-1008.31 577.522,-1013.08"/>
<text text-anchor="middle" x="601" y="-1026.3" font-family="Times,serif" font-size="14.00">LedgerR2ary</text>
</g>
<!-- BtForkTransition_Stop&#45;&gt;BtJoinIFTHEN -->
<g id="edge22" class="edge"><title>BtForkTransition_Stop&#45;&gt;BtJoinIFTHEN</title>
<path fill="none" stroke="black" stroke-width="2" d="M437.577,-353.295C426.721,-347.826 415.01,-341.23 405,-334 394.269,-326.249 383.618,-316.309 374.777,-307.266"/>
<polygon fill="black" stroke="black" points="377.243,-304.78 367.814,-299.949 372.172,-309.606 377.243,-304.78"/>
<text text-anchor="middle" x="424.5" y="-322.3" font-family="Times,serif" font-size="14.00">Work2</text>
</g>
<!-- BtForkTransition_Stop&#45;&gt;BtJoinIFTHEN -->
<g id="edge23" class="edge"><title>BtForkTransition_Stop&#45;&gt;BtJoinIFTHEN</title>
<path fill="none" stroke="black" stroke-width="2" d="M466.78,-351.843C462.029,-340.863 454.501,-327.034 444,-318 434.179,-309.55 422.096,-303.025 409.982,-298.028"/>
<polygon fill="black" stroke="black" points="410.893,-294.63 400.302,-294.341 408.401,-301.171 410.893,-294.63"/>
<text text-anchor="middle" x="474" y="-322.3" font-family="Times,serif" font-size="14.00">Work</text>
</g>
<!-- BtJoinIFTHEN&#45;&gt;BtJoinIFTHEN -->
<g id="edge24" class="edge"><title>BtJoinIFTHEN&#45;&gt;BtJoinIFTHEN</title>
<path fill="none" stroke="black" stroke-width="2" d="M410.852,-290.104C424.722,-289.471 435,-286.77 435,-282 435,-278.497 429.457,-276.11 421.019,-274.838"/>
<polygon fill="black" stroke="black" points="421.132,-271.334 410.852,-273.896 420.486,-278.304 421.132,-271.334"/>
<text text-anchor="middle" x="451" y="-278.3" font-family="Times,serif" font-size="14.00">Work</text>
</g>
<!-- BtJoinELSE -->
<g id="node11" class="node"><title>BtJoinELSE</title>
<ellipse fill="none" stroke="black" cx="318" cy="-194" rx="54.3924" ry="18"/>
<text text-anchor="middle" x="318" y="-190.3" font-family="Times,serif" font-size="14.00">BtJoinELSE</text>
</g>
<!-- BtJoinIFTHEN&#45;&gt;BtJoinELSE -->
<g id="edge25" class="edge"><title>BtJoinIFTHEN&#45;&gt;BtJoinELSE</title>
<path fill="none" stroke="black" d="M346.085,-264.009C341.148,-251.877 334.409,-235.32 328.771,-221.465"/>
<polygon fill="black" stroke="black" points="331.912,-219.898 324.901,-211.956 325.428,-222.537 331.912,-219.898"/>
<text text-anchor="middle" x="372.5" y="-234.3" font-family="Times,serif" font-size="14.00">ELSEclause</text>
</g>
<!-- BtJoinELSE&#45;&gt;ConcludeBtForkJoin -->
<g id="edge26" class="edge"><title>BtJoinELSE&#45;&gt;ConcludeBtForkJoin</title>
<path fill="none" stroke="black" d="M295.902,-177.34C280.196,-166.607 258.36,-152.471 238,-142 226.462,-136.066 213.676,-130.435 201.537,-125.493"/>
<polygon fill="black" stroke="black" points="202.563,-122.134 191.978,-121.684 199.972,-128.637 202.563,-122.134"/>
<text text-anchor="middle" x="282" y="-146.3" font-family="Times,serif" font-size="14.00">Work</text>
</g>
<!-- R2aryConclusion -->
<g id="node13" class="node"><title>R2aryConclusion</title>
<ellipse fill="none" stroke="black" cx="617" cy="-458" rx="72.2155" ry="18"/>
<text text-anchor="middle" x="617" y="-454.3" font-family="Times,serif" font-size="14.00">R2aryConclusion</text>
</g>
<!-- R2arySetup&#45;&gt;R2aryConclusion -->
<g id="edge27" class="edge"><title>R2arySetup&#45;&gt;R2aryConclusion</title>
<path fill="none" stroke="black" d="M597,-967.867C597,-950.51 597,-922.889 597,-899 597,-899 597,-899 597,-545 597,-524.816 602.291,-502.644 607.43,-485.868"/>
<polygon fill="black" stroke="black" points="610.814,-486.778 610.562,-476.187 604.154,-484.624 610.814,-486.778"/>
<text text-anchor="middle" x="645" y="-718.3" font-family="Times,serif" font-size="14.00">R2aryWhenDone</text>
</g>
<!-- R2aryJoinIF -->
<g id="node14" class="node"><title>R2aryJoinIF</title>
<ellipse fill="none" stroke="black" cx="719" cy="-898" rx="54.3924" ry="18"/>
<text text-anchor="middle" x="719" y="-894.3" font-family="Times,serif" font-size="14.00">R2aryJoinIF</text>
</g>
<!-- R2arySetup&#45;&gt;R2aryJoinIF -->
<g id="edge28" class="edge"><title>R2arySetup&#45;&gt;R2aryJoinIF</title>
<path fill="none" stroke="black" d="M618.811,-969.625C638.294,-955.891 667.027,-935.637 688.732,-920.336"/>
<polygon fill="black" stroke="black" points="690.809,-923.154 696.966,-914.532 686.776,-917.433 690.809,-923.154"/>
<text text-anchor="middle" x="707.5" y="-938.3" font-family="Times,serif" font-size="14.00">LedgerR2ary2</text>
</g>
<!-- R2aryConclusion&#45;&gt;BtForkTransition_Stop -->
<g id="edge29" class="edge"><title>R2aryConclusion&#45;&gt;BtForkTransition_Stop</title>
<path fill="none" stroke="black" d="M590.588,-441.226C567.637,-427.519 534.186,-407.542 508.825,-392.396"/>
<polygon fill="black" stroke="black" points="510.603,-389.381 500.223,-387.258 507.014,-395.39 510.603,-389.381"/>
<text text-anchor="middle" x="591" y="-410.3" font-family="Times,serif" font-size="14.00">R2aryValue</text>
</g>
<!-- R2aryJoinIF&#45;&gt;R2aryJoinIF -->
<g id="edge30" class="edge"><title>R2aryJoinIF&#45;&gt;R2aryJoinIF</title>
<path fill="none" stroke="black" d="M767.456,-906.2C780.802,-905.804 791,-903.07 791,-898 791,-894.316 785.616,-891.866 777.554,-890.65"/>
<polygon fill="black" stroke="black" points="777.715,-887.151 767.456,-889.8 777.128,-894.126 777.715,-887.151"/>
<text text-anchor="middle" x="827" y="-894.3" font-family="Times,serif" font-size="14.00">LedgerR2ary</text>
</g>
<!-- R2aryJoinELSE -->
<g id="node15" class="node"><title>R2aryJoinELSE</title>
<ellipse fill="none" stroke="black" cx="719" cy="-810" rx="67.3907" ry="18"/>
<text text-anchor="middle" x="719" y="-806.3" font-family="Times,serif" font-size="14.00">R2aryJoinELSE</text>
</g>
<!-- R2aryJoinIF&#45;&gt;R2aryJoinELSE -->
<g id="edge31" class="edge"><title>R2aryJoinIF&#45;&gt;R2aryJoinELSE</title>
<path fill="none" stroke="black" d="M719,-879.597C719,-867.746 719,-851.817 719,-838.292"/>
<polygon fill="black" stroke="black" points="722.5,-838.084 719,-828.084 715.5,-838.084 722.5,-838.084"/>
<text text-anchor="middle" x="752.5" y="-850.3" font-family="Times,serif" font-size="14.00">ELSEclause</text>
</g>
<!-- R2aryForkIF -->
<g id="node16" class="node"><title>R2aryForkIF</title>
<ellipse fill="none" stroke="black" cx="768" cy="-722" rx="56.3173" ry="18"/>
<text text-anchor="middle" x="768" y="-718.3" font-family="Times,serif" font-size="14.00">R2aryForkIF</text>
</g>
<!-- R2aryJoinIF&#45;&gt;R2aryForkIF -->
<g id="edge32" class="edge"><title>R2aryJoinIF&#45;&gt;R2aryForkIF</title>
<path fill="none" stroke="red" stroke-dasharray="5,2" d="M757.144,-885.014C769.073,-879.634 781.359,-872.15 790,-862 816.519,-830.849 810.933,-814.458 817,-774 818.055,-766.968 820.254,-764.323 817,-758 814.242,-752.641 810.241,-747.92 805.696,-743.822"/>
<polygon fill="red" stroke="red" points="807.686,-740.934 797.659,-737.511 803.362,-746.44 807.686,-740.934"/>
<text text-anchor="middle" x="862" y="-806.3" font-family="Times,serif" font-size="14.00">R2aryWhenDone</text>
</g>
<!-- R2aryJoinELSE&#45;&gt;R2aryForkIF -->
<g id="edge33" class="edge"><title>R2aryJoinELSE&#45;&gt;R2aryForkIF</title>
<path fill="none" stroke="red" stroke-dasharray="1,5" d="M672.419,-796.849C648.501,-788.252 626.876,-775.194 640,-758 642.449,-754.791 680.587,-744.604 714.6,-736.042"/>
<polygon fill="red" stroke="red" points="715.662,-739.384 724.513,-733.562 713.963,-732.594 715.662,-739.384"/>
<text text-anchor="middle" x="688" y="-762.3" font-family="Times,serif" font-size="14.00">R2aryWhenDone</text>
</g>
<!-- R2aryJoinELSE&#45;&gt;R2aryForkIF -->
<g id="edge34" class="edge"><title>R2aryJoinELSE&#45;&gt;R2aryForkIF</title>
<path fill="none" stroke="red" stroke-dasharray="1,5" d="M728.681,-792.009C735.728,-779.641 745.394,-762.675 753.379,-748.661"/>
<polygon fill="red" stroke="red" points="756.43,-750.377 758.339,-739.956 750.348,-746.911 756.43,-750.377"/>
<text text-anchor="middle" x="780" y="-762.3" font-family="Times,serif" font-size="14.00">R2aryValue</text>
</g>
<!-- R2aryForkIF_FOR -->
<g id="node17" class="node"><title>R2aryForkIF_FOR</title>
<ellipse fill="none" stroke="black" cx="749" cy="-634" rx="77.4897" ry="18"/>
<text text-anchor="middle" x="749" y="-630.3" font-family="Times,serif" font-size="14.00">R2aryForkIF_FOR</text>
</g>
<!-- R2aryForkIF&#45;&gt;R2aryForkIF_FOR -->
<g id="edge35" class="edge"><title>R2aryForkIF&#45;&gt;R2aryForkIF_FOR</title>
<path fill="none" stroke="black" d="M724.543,-710.563C684.983,-700.962 632.496,-687.927 631,-686 614.5,-664.755 639.695,-652.21 670.981,-644.882"/>
<polygon fill="black" stroke="black" points="671.8,-648.286 680.846,-642.771 670.335,-641.441 671.8,-648.286"/>
<text text-anchor="middle" x="679" y="-674.3" font-family="Times,serif" font-size="14.00">R2aryWhenDone</text>
</g>
<!-- R2aryForkIF&#45;&gt;R2aryForkIF_FOR -->
<g id="edge36" class="edge"><title>R2aryForkIF&#45;&gt;R2aryForkIF_FOR</title>
<path fill="none" stroke="black" d="M757.387,-704.173C754.417,-698.601 751.572,-692.227 750,-686 748.092,-678.444 747.378,-670.056 747.262,-662.302"/>
<polygon fill="black" stroke="black" points="750.762,-662.31 747.419,-652.257 743.763,-662.201 750.762,-662.31"/>
<text text-anchor="middle" x="783" y="-674.3" font-family="Times,serif" font-size="14.00">R2aryValue</text>
</g>
<!-- R2aryForkELSE -->
<g id="node18" class="node"><title>R2aryForkELSE</title>
<ellipse fill="none" stroke="black" cx="921" cy="-634" rx="69.3156" ry="18"/>
<text text-anchor="middle" x="921" y="-630.3" font-family="Times,serif" font-size="14.00">R2aryForkELSE</text>
</g>
<!-- R2aryForkIF&#45;&gt;R2aryForkELSE -->
<g id="edge37" class="edge"><title>R2aryForkIF&#45;&gt;R2aryForkELSE</title>
<path fill="none" stroke="black" d="M819.192,-714.345C841.964,-709.409 868.072,-700.842 888,-686 896.754,-679.48 903.824,-669.896 909.14,-660.791"/>
<polygon fill="black" stroke="black" points="912.225,-662.443 913.869,-651.977 906.057,-659.134 912.225,-662.443"/>
<text text-anchor="middle" x="935.5" y="-674.3" font-family="Times,serif" font-size="14.00">ELSEclause</text>
</g>
<!-- R2aryForkIF_FOR&#45;&gt;R2aryForkIF -->
<g id="edge38" class="edge"><title>R2aryForkIF_FOR&#45;&gt;R2aryForkIF</title>
<path fill="none" stroke="red" stroke-dasharray="1,5" d="M792.4,-648.96C801.762,-654.066 810.492,-660.908 816,-670 822.692,-681.046 815.567,-691.706 804.939,-700.398"/>
<polygon fill="red" stroke="red" points="802.766,-697.65 796.729,-706.357 806.878,-703.316 802.766,-697.65"/>
<text text-anchor="middle" x="851" y="-674.3" font-family="Times,serif" font-size="14.00">R2aryValue</text>
</g>
<!-- R2aryForkELSE_FOR -->
<g id="node19" class="node"><title>R2aryForkELSE_FOR</title>
<ellipse fill="none" stroke="black" cx="802" cy="-546" rx="90.4879" ry="18"/>
<text text-anchor="middle" x="802" y="-542.3" font-family="Times,serif" font-size="14.00">R2aryForkELSE_FOR</text>
</g>
<!-- R2aryForkELSE&#45;&gt;R2aryForkELSE_FOR -->
<g id="edge39" class="edge"><title>R2aryForkELSE&#45;&gt;R2aryForkELSE_FOR</title>
<path fill="none" stroke="black" d="M865.639,-623.086C838.965,-617.08 811.029,-608.539 803,-598 797.944,-591.363 796.474,-582.703 796.635,-574.408"/>
<polygon fill="black" stroke="black" points="800.136,-574.555 797.565,-564.277 793.166,-573.915 800.136,-574.555"/>
<text text-anchor="middle" x="851" y="-586.3" font-family="Times,serif" font-size="14.00">R2aryWhenDone</text>
</g>
<!-- R2aryForkELSE&#45;&gt;R2aryForkELSE_FOR -->
<g id="edge40" class="edge"><title>R2aryForkELSE&#45;&gt;R2aryForkELSE_FOR</title>
<path fill="none" stroke="black" d="M917.326,-615.811C914.164,-604.818 908.552,-590.986 899,-582 890.781,-574.267 880.728,-568.22 870.243,-563.498"/>
<polygon fill="black" stroke="black" points="871.533,-560.244 860.953,-559.68 868.872,-566.719 871.533,-560.244"/>
<text text-anchor="middle" x="943" y="-586.3" font-family="Times,serif" font-size="14.00">R2aryValue</text>
</g>
<!-- R2aryForkELSE_FOR&#45;&gt;R2aryConclusion -->
<g id="edge41" class="edge"><title>R2aryForkELSE_FOR&#45;&gt;R2aryConclusion</title>
<path fill="none" stroke="black" d="M768.068,-529.226C737.307,-514.927 691.867,-493.803 658.861,-478.46"/>
<polygon fill="black" stroke="black" points="660.02,-475.139 649.476,-474.097 657.069,-481.486 660.02,-475.139"/>
<text text-anchor="middle" x="759" y="-498.3" font-family="Times,serif" font-size="14.00">R2aryValue</text>
</g>
</g>
</svg>
